<mxfile host="app.diagrams.net" modified="2023-04-03T06:52:56.520Z" 
agent="Mozilla/5.0 (Windows NT 10.0; Win64; x64) AppleWebKit/537.36 
(KHTML, like Gecko) Chrome/111.0.0.0 Safari/537.36" 
etag="HO-A6ykJ9f6u-iWg5jUc" version="21.1.2" type="device">
  <diagram name="Page-1" id="c4acf3e9-155e-7222-9cf6-157b1a14988f">
    <mxGraphModel dx="2358" dy="1519" grid="1" gridSize="10" guides="1" 
tooltips="1" connect="1" arrows="1" fold="1" page="1" pageScale="1" 
pageWidth="850" pageHeight="1100" background="none" math="0" shadow="0">
      <root>
        <mxCell id="0" />
        <mxCell id="1" parent="0" />
        <mxCell id="FMBArwRHaRoccxMsV3ws-11" value="&lt;b 
style=&quot;border-color: var(--border-color);&quot;&gt;&lt;font 
style=&quot;font-size: 
14px;&quot;&gt;Book&lt;/font&gt;&lt;br&gt;&lt;/b&gt;" 
style="swimlane;fontStyle=1;align=center;verticalAlign=top;childLayout=stackLayout;horizontal=1;startSize=26;horizontalStack=0;resizeParent=1;resizeParentMax=0;resizeLast=0;collapsible=1;marginBottom=0;whiteSpace=wrap;html=1;fillColor=#dae8fc;strokeColor=#6c8ebf;" 
parent="1" vertex="1">
          <mxGeometry x="-370" y="-156" width="300" height="180" 
as="geometry">
            <mxRectangle x="145" y="80" width="70" height="30" 
as="alternateBounds" />
          </mxGeometry>
        </mxCell>
        <mxCell id="FMBArwRHaRoccxMsV3ws-12" value="&lt;p 
style=&quot;border-color: var(--border-color); margin: 0px 0px 0px 
4px;&quot;&gt;- _topicship: Topicship&lt;/p&gt;&lt;p 
style=&quot;border-color: var(--border-color); margin: 0px 0px 0px 
4px;&quot;&gt;- _edition: Edition&amp;nbsp;&lt;/p&gt;&lt;p 
style=&quot;border-color: var(--border-color); margin: 0px 0px 0px 
4px;&quot;&gt;- _genericships: 
List&amp;lt;Genericship&amp;gt;&lt;/p&gt;&lt;p style=&quot;border-color: 
var(--border-color); margin: 0px 0px 0px 
4px;&quot;&gt;&lt;br&gt;&lt;/p&gt;" 
style="text;strokeColor=none;fillColor=none;align=left;verticalAlign=top;spacingLeft=4;spacingRight=4;overflow=hidden;rotatable=0;points=[[0,0.5],[1,0.5]];portConstraint=eastwest;whiteSpace=wrap;html=1;" 
parent="FMBArwRHaRoccxMsV3ws-11" vertex="1">
          <mxGeometry y="26" width="300" height="52" as="geometry" />
        </mxCell>
        <mxCell id="FMBArwRHaRoccxMsV3ws-13" value="" 
style="line;strokeWidth=1;fillColor=none;align=left;verticalAlign=middle;spacingTop=-1;spacingLeft=3;spacingRight=3;rotatable=0;labelPosition=right;points=[];portConstraint=eastwest;strokeColor=inherit;" 
parent="FMBArwRHaRoccxMsV3ws-11" vertex="1">
          <mxGeometry y="78" width="300" height="8" as="geometry" />
        </mxCell>
        <mxCell id="FMBArwRHaRoccxMsV3ws-14" value="&lt;p 
style=&quot;border-color: var(--border-color); margin: 0px 0px 0px 
4px;&quot;&gt;+ GetTopicship()&lt;/p&gt;&lt;p style=&quot;border-color: 
var(--border-color); margin: 0px 0px 0px 4px;&quot;&gt;+ 
SetTopicship(topicship: Topicship)&lt;br&gt;&lt;/p&gt;&lt;p 
style=&quot;border-color: var(--border-color); margin: 0px 0px 0px 
4px;&quot;&gt;+ GetEdition()&lt;/p&gt;&lt;p style=&quot;border-color: 
var(--border-color); margin: 0px 0px 0px 4px;&quot;&gt;+ 
SetEdition(edition: Edition)&lt;/p&gt;&lt;p style=&quot;border-color: 
var(--border-color); margin: 0px 0px 0px 4px;&quot;&gt;+ 
GetGenreships()&lt;/p&gt;&lt;p style=&quot;border-color: 
var(--border-color); margin: 0px 0px 0px 4px;&quot;&gt;+ 
SetGenreships(genreships: 
List&amp;lt;Genericship&amp;gt;)&lt;br&gt;&lt;/p&gt;" 
style="text;strokeColor=none;fillColor=none;align=left;verticalAlign=top;spacingLeft=4;spacingRight=4;overflow=hidden;rotatable=0;points=[[0,0.5],[1,0.5]];portConstraint=eastwest;whiteSpace=wrap;html=1;rotation=0;" 
parent="FMBArwRHaRoccxMsV3ws-11" vertex="1">
          <mxGeometry y="86" width="300" height="94" as="geometry" />
        </mxCell>
        <mxCell id="FMBArwRHaRoccxMsV3ws-24" value="&lt;font 
style=&quot;font-size: 14px;&quot;&gt;Autor&lt;/font&gt;" 
style="swimlane;fontStyle=1;align=center;verticalAlign=top;childLayout=stackLayout;horizontal=1;startSize=26;horizontalStack=0;resizeParent=1;resizeParentMax=0;resizeLast=0;collapsible=1;marginBottom=0;whiteSpace=wrap;html=1;fillColor=#dae8fc;strokeColor=#6c8ebf;" 
parent="1" vertex="1">
          <mxGeometry x="20" y="525" width="360" height="130" 
as="geometry">
            <mxRectangle x="370" y="510" width="60" height="30" 
as="alternateBounds" />
          </mxGeometry>
        </mxCell>
        <mxCell id="FMBArwRHaRoccxMsV3ws-25" value="- _autorName: 
String&lt;br&gt;- _autorship: Autorship&lt;br&gt;&lt;div 
style=&quot;display:none&quot; id=&quot;SDCloudData&quot;&gt;&lt;/div&gt;" 
style="text;strokeColor=none;fillColor=none;align=left;verticalAlign=top;spacingLeft=4;spacingRight=4;overflow=hidden;rotatable=0;points=[[0,0.5],[1,0.5]];portConstraint=eastwest;whiteSpace=wrap;html=1;rotation=0;" 
parent="FMBArwRHaRoccxMsV3ws-24" vertex="1">
          <mxGeometry y="26" width="360" height="34" as="geometry" />
        </mxCell>
        <mxCell id="FMBArwRHaRoccxMsV3ws-26" value="" 
style="line;strokeWidth=1;fillColor=none;align=left;verticalAlign=middle;spacingTop=-1;spacingLeft=3;spacingRight=3;rotatable=0;labelPosition=right;points=[];portConstraint=eastwest;strokeColor=inherit;" 
parent="FMBArwRHaRoccxMsV3ws-24" vertex="1">
          <mxGeometry y="60" width="360" height="8" as="geometry" />
        </mxCell>
        <mxCell id="FMBArwRHaRoccxMsV3ws-27" value="&lt;p 
style=&quot;border-color: var(--border-color); margin: 0px 0px 0px 
4px;&quot;&gt;+ GetAutorName()&lt;/p&gt;&lt;p style=&quot;border-color: 
var(--border-color); margin: 0px 0px 0px 4px;&quot;&gt;+ 
SetAutorName(autorName: String)&lt;/p&gt;&lt;p style=&quot;border-color: 
var(--border-color); margin: 0px 0px 0px 4px;&quot;&gt;+ 
GetAutorship()&lt;/p&gt;&lt;p style=&quot;border-color: 
var(--border-color); margin: 0px 0px 0px 4px;&quot;&gt;+ 
SetAutorship(autorship: Autorship)&lt;/p&gt;" 
style="text;strokeColor=none;fillColor=none;align=left;verticalAlign=top;spacingLeft=4;spacingRight=4;overflow=hidden;rotatable=0;points=[[0,0.5],[1,0.5]];portConstraint=eastwest;whiteSpace=wrap;html=1;" 
parent="FMBArwRHaRoccxMsV3ws-24" vertex="1">
          <mxGeometry y="68" width="360" height="62" as="geometry" />
        </mxCell>
        <mxCell id="FMBArwRHaRoccxMsV3ws-41" value="&lt;b 
style=&quot;border-color: var(--border-color);&quot;&gt;&lt;font 
style=&quot;font-size: 14px;&quot;&gt;BookCopy&lt;/font&gt;&lt;/b&gt;" 
style="swimlane;fontStyle=1;align=center;verticalAlign=top;childLayout=stackLayout;horizontal=1;startSize=26;horizontalStack=0;resizeParent=1;resizeParentMax=0;resizeLast=0;collapsible=1;marginBottom=0;whiteSpace=wrap;html=1;fillColor=#dae8fc;strokeColor=#6c8ebf;" 
parent="1" vertex="1">
          <mxGeometry x="1680" y="-147" width="330" height="180" 
as="geometry" />
        </mxCell>
        <mxCell id="FMBArwRHaRoccxMsV3ws-42" value="&lt;p 
style=&quot;border-color: var(--border-color); margin: 0px 0px 0px 
4px;&quot;&gt;- _bookCopyID: String&lt;/p&gt;&lt;p 
style=&quot;border-color: var(--border-color); margin: 0px 0px 0px 
4px;&quot;&gt;- _section: Section&lt;/p&gt;" 
style="text;strokeColor=none;fillColor=none;align=left;verticalAlign=top;spacingLeft=4;spacingRight=4;overflow=hidden;rotatable=0;points=[[0,0.5],[1,0.5]];portConstraint=eastwest;whiteSpace=wrap;html=1;rotation=0;" 
parent="FMBArwRHaRoccxMsV3ws-41" vertex="1">
          <mxGeometry y="26" width="330" height="34" as="geometry" />
        </mxCell>
        <mxCell id="FMBArwRHaRoccxMsV3ws-43" value="" 
style="line;strokeWidth=1;fillColor=none;align=left;verticalAlign=middle;spacingTop=-1;spacingLeft=3;spacingRight=3;rotatable=0;labelPosition=right;points=[];portConstraint=eastwest;strokeColor=inherit;" 
parent="FMBArwRHaRoccxMsV3ws-41" vertex="1">
          <mxGeometry y="60" width="330" height="8" as="geometry" />
        </mxCell>
        <mxCell id="FMBArwRHaRoccxMsV3ws-44" value="+ 
IsAvaible()&lt;br&gt;+ IsBorrowed()&lt;br&gt;+ IsOrdered()&lt;br&gt;+ 
GetDueDate()&lt;br&gt;+ GetBookCopyID()&lt;br&gt;+ GetSection()&lt;br&gt;+ 
SetSection()" 
style="text;strokeColor=none;fillColor=none;align=left;verticalAlign=top;spacingLeft=4;spacingRight=4;overflow=hidden;rotatable=0;points=[[0,0.5],[1,0.5]];portConstraint=eastwest;whiteSpace=wrap;html=1;rotation=0;" 
parent="FMBArwRHaRoccxMsV3ws-41" vertex="1">
          <mxGeometry y="68" width="330" height="112" as="geometry" />
        </mxCell>
        <mxCell id="FMBArwRHaRoccxMsV3ws-47" value="&lt;b 
style=&quot;border-color: var(--border-color);&quot;&gt;&lt;font 
style=&quot;font-size: 
14px;&quot;&gt;Payment&lt;/font&gt;&lt;br&gt;&lt;/b&gt;" 
style="swimlane;fontStyle=1;align=center;verticalAlign=top;childLayout=stackLayout;horizontal=1;startSize=26;horizontalStack=0;resizeParent=1;resizeParentMax=0;resizeLast=0;collapsible=1;marginBottom=0;whiteSpace=wrap;html=1;fillColor=#dae8fc;strokeColor=#6c8ebf;" 
parent="1" vertex="1">
          <mxGeometry x="1360" y="925" width="310" height="260" 
as="geometry" />
        </mxCell>
        <mxCell id="FMBArwRHaRoccxMsV3ws-48" value="&lt;p 
style=&quot;border-color: var(--border-color); margin: 0px 0px 0px 
4px;&quot;&gt;- _paymentID: String&lt;/p&gt;&lt;p 
style=&quot;border-color: var(--border-color); margin: 0px 0px 0px 
4px;&quot;&gt;- _deptor: User&lt;/p&gt;&lt;p style=&quot;border-color: 
var(--border-color); margin: 0px 0px 0px 4px;&quot;&gt;- _price: 
Decimal&lt;/p&gt;&lt;p style=&quot;border-color: var(--border-color); 
margin: 0px 0px 0px 4px;&quot;&gt;- _deadline: Date&lt;/p&gt;&lt;p 
style=&quot;border-color: var(--border-color); margin: 0px 0px 0px 
4px;&quot;&gt;- _reason: String&lt;/p&gt;" 
style="text;strokeColor=none;fillColor=none;align=left;verticalAlign=top;spacingLeft=4;spacingRight=4;overflow=hidden;rotatable=0;points=[[0,0.5],[1,0.5]];portConstraint=eastwest;whiteSpace=wrap;html=1;" 
parent="FMBArwRHaRoccxMsV3ws-47" vertex="1">
          <mxGeometry y="26" width="310" height="84" as="geometry" />
        </mxCell>
        <mxCell id="FMBArwRHaRoccxMsV3ws-49" value="" 
style="line;strokeWidth=1;fillColor=none;align=left;verticalAlign=middle;spacingTop=-1;spacingLeft=3;spacingRight=3;rotatable=0;labelPosition=right;points=[];portConstraint=eastwest;strokeColor=inherit;" 
parent="FMBArwRHaRoccxMsV3ws-47" vertex="1">
          <mxGeometry y="110" width="310" height="8" as="geometry" />
        </mxCell>
        <mxCell id="FMBArwRHaRoccxMsV3ws-50" value="+ 
GetPaymentID()&lt;br&gt;+ GetDeptor()&lt;br&gt;+ SetDeptor(deptor: 
User)&lt;br&gt;+ GetPrice()&lt;br&gt;+ SetPrice(price: Decimal)&lt;br&gt;+ 
GetDeadlLine()&lt;br&gt;+ SetDeadline(deadline: Date)&lt;br&gt;+ 
GetReason()&lt;br&gt;+ SetReason(reason: String)" 
style="text;strokeColor=none;fillColor=none;align=left;verticalAlign=top;spacingLeft=4;spacingRight=4;overflow=hidden;rotatable=0;points=[[0,0.5],[1,0.5]];portConstraint=eastwest;whiteSpace=wrap;html=1;rotation=0;" 
parent="FMBArwRHaRoccxMsV3ws-47" vertex="1">
          <mxGeometry y="118" width="310" height="142" as="geometry" />
        </mxCell>
        <mxCell id="EIWtW14MWvJl-eXGEkqy-2" value="&lt;font 
style=&quot;font-size: 14px;&quot;&gt;Section(RQ9T)&lt;/font&gt;" 
style="swimlane;fontStyle=1;align=center;verticalAlign=top;childLayout=stackLayout;horizontal=1;startSize=26;horizontalStack=0;resizeParent=1;resizeParentMax=0;resizeLast=0;collapsible=1;marginBottom=0;whiteSpace=wrap;html=1;fillColor=#dae8fc;strokeColor=#6c8ebf;" 
parent="1" vertex="1">
          <mxGeometry x="1680" y="240" width="340" height="168" 
as="geometry" />
        </mxCell>
        <mxCell id="EIWtW14MWvJl-eXGEkqy-3" value="&lt;p 
style=&quot;border-color: var(--border-color); margin: 0px 0px 0px 
4px;&quot;&gt;- _sectionID: String&lt;/p&gt;&lt;p 
style=&quot;border-color: var(--border-color); margin: 0px 0px 0px 
4px;&quot;&gt;- _bookCopies: List&amp;lt;BookCopy&amp;gt;&lt;/p&gt;&lt;p 
style=&quot;border-color: var(--border-color); margin: 0px 0px 0px 
4px;&quot;&gt;- _location: Location&lt;/p&gt;" 
style="text;strokeColor=none;fillColor=none;align=left;verticalAlign=top;spacingLeft=4;spacingRight=4;overflow=hidden;rotatable=0;points=[[0,0.5],[1,0.5]];portConstraint=eastwest;whiteSpace=wrap;html=1;" 
parent="EIWtW14MWvJl-eXGEkqy-2" vertex="1">
          <mxGeometry y="26" width="340" height="54" as="geometry" />
        </mxCell>
        <mxCell id="EIWtW14MWvJl-eXGEkqy-4" value="" 
style="line;strokeWidth=1;fillColor=none;align=left;verticalAlign=middle;spacingTop=-1;spacingLeft=3;spacingRight=3;rotatable=0;labelPosition=right;points=[];portConstraint=eastwest;strokeColor=inherit;" 
parent="EIWtW14MWvJl-eXGEkqy-2" vertex="1">
          <mxGeometry y="80" width="340" height="8" as="geometry" />
        </mxCell>
        <mxCell id="EIWtW14MWvJl-eXGEkqy-5" value="&lt;p 
style=&quot;border-color: var(--border-color); margin: 0px 0px 0px 
4px;&quot;&gt;+ GetSectionID()&lt;/p&gt;&lt;p style=&quot;border-color: 
var(--border-color); margin: 0px 0px 0px 4px;&quot;&gt;+ 
GetBookCopies()&lt;/p&gt;&lt;p style=&quot;border-color: 
var(--border-color); margin: 0px 0px 0px 4px;&quot;&gt;+ 
SetBookCopies(bookCopies: List&amp;lt;BookCopy&amp;gt;)&lt;/p&gt;&lt;p 
style=&quot;border-color: var(--border-color); margin: 0px 0px 0px 
4px;&quot;&gt;+ GetLocation()&lt;/p&gt;&lt;p style=&quot;border-color: 
var(--border-color); margin: 0px 0px 0px 4px;&quot;&gt;+ 
SetLocation(location: Location)&lt;/p&gt;" 
style="text;strokeColor=none;fillColor=none;align=left;verticalAlign=top;spacingLeft=4;spacingRight=4;overflow=hidden;rotatable=0;points=[[0,0.5],[1,0.5]];portConstraint=eastwest;whiteSpace=wrap;html=1;" 
parent="EIWtW14MWvJl-eXGEkqy-2" vertex="1">
          <mxGeometry y="88" width="340" height="80" as="geometry" />
        </mxCell>
        <mxCell id="EIWtW14MWvJl-eXGEkqy-40" value="&lt;font 
style=&quot;font-size: 14px;&quot;&gt;Edition&lt;/font&gt;" 
style="swimlane;fontStyle=1;align=center;verticalAlign=top;childLayout=stackLayout;horizontal=1;startSize=26;horizontalStack=0;resizeParent=1;resizeParentMax=0;resizeLast=0;collapsible=1;marginBottom=0;whiteSpace=wrap;html=1;fillColor=#dae8fc;strokeColor=#6c8ebf;" 
parent="1" vertex="1">
          <mxGeometry x="560" y="-170" width="250" height="320" 
as="geometry" />
        </mxCell>
        <mxCell id="EIWtW14MWvJl-eXGEkqy-41" value="- _bookCopies: 
List&amp;lt;BookCopy&amp;gt;&lt;br&gt;- _autorships: 
List&amp;lt;Autorship&amp;gt;&lt;br&gt;- _publisherships: 
List&amp;lt;Publishership&amp;gt;&lt;br&gt;- _languageship: 
Languageship&lt;br&gt;- _releaseDate: Date" 
style="text;strokeColor=none;fillColor=none;align=left;verticalAlign=top;spacingLeft=4;spacingRight=4;overflow=hidden;rotatable=0;points=[[0,0.5],[1,0.5]];portConstraint=eastwest;whiteSpace=wrap;html=1;" 
parent="EIWtW14MWvJl-eXGEkqy-40" vertex="1">
          <mxGeometry y="26" width="250" height="80" as="geometry" />
        </mxCell>
        <mxCell id="EIWtW14MWvJl-eXGEkqy-42" value="" 
style="line;strokeWidth=1;fillColor=none;align=left;verticalAlign=middle;spacingTop=-1;spacingLeft=3;spacingRight=3;rotatable=0;labelPosition=right;points=[];portConstraint=eastwest;strokeColor=inherit;" 
parent="EIWtW14MWvJl-eXGEkqy-40" vertex="1">
          <mxGeometry y="106" width="250" height="8" as="geometry" />
        </mxCell>
        <mxCell id="EIWtW14MWvJl-eXGEkqy-43" value="&lt;p 
style=&quot;border-color: var(--border-color); margin: 0px 0px 0px 
4px;&quot;&gt;+ GetBookCopies()&lt;/p&gt;&lt;p style=&quot;border-color: 
var(--border-color); margin: 0px 0px 0px 4px;&quot;&gt;+ 
SetBookCopy(bookCopies: List&amp;lt;BookCopy&amp;gt;)&lt;/p&gt;&lt;p 
style=&quot;border-color: var(--border-color); margin: 0px 0px 0px 
4px;&quot;&gt;+ GetAutorships()&lt;/p&gt;&lt;p style=&quot;border-color: 
var(--border-color); margin: 0px 0px 0px 4px;&quot;&gt;+ 
SetAutorships(autorships: List&amp;lt;AutorShip&amp;gt;)&lt;/p&gt;&lt;p 
style=&quot;border-color: var(--border-color); margin: 0px 0px 0px 
4px;&quot;&gt;+ GetPublisherships()&lt;/p&gt;&lt;p 
style=&quot;border-color: var(--border-color); margin: 0px 0px 0px 
4px;&quot;&gt;+ SetPublisherships(publisherships: 
List&amp;lt;Publisherships&amp;gt;)&lt;/p&gt;&lt;p 
style=&quot;border-color: var(--border-color); margin: 0px 0px 0px 
4px;&quot;&gt;+ GetLanguageship()&lt;/p&gt;&lt;p style=&quot;border-color: 
var(--border-color); margin: 0px 0px 0px 4px;&quot;&gt;+ 
SetLanguageship(languageship: Languageship)&lt;/p&gt;&lt;p 
style=&quot;border-color: var(--border-color); margin: 0px 0px 0px 
4px;&quot;&gt;+ GetRealeaseDate()&lt;/p&gt;&lt;p style=&quot;border-color: 
var(--border-color); margin: 0px 0px 0px 4px;&quot;&gt;+ 
SetRealeaseDate(releaseDate: Date)&lt;/p&gt;" 
style="text;strokeColor=none;fillColor=none;align=left;verticalAlign=top;spacingLeft=4;spacingRight=4;overflow=hidden;rotatable=0;points=[[0,0.5],[1,0.5]];portConstraint=eastwest;whiteSpace=wrap;html=1;" 
parent="EIWtW14MWvJl-eXGEkqy-40" vertex="1">
          <mxGeometry y="114" width="250" height="206" as="geometry" />
        </mxCell>
        <mxCell id="EIWtW14MWvJl-eXGEkqy-44" value="&lt;font 
style=&quot;font-size: 14px;&quot;&gt;Autorship&lt;/font&gt;" 
style="swimlane;fontStyle=1;align=center;verticalAlign=top;childLayout=stackLayout;horizontal=1;startSize=26;horizontalStack=0;resizeParent=1;resizeParentMax=0;resizeLast=0;collapsible=1;marginBottom=0;whiteSpace=wrap;html=1;fillColor=#dae8fc;strokeColor=#6c8ebf;" 
parent="1" vertex="1">
          <mxGeometry x="5" y="240" width="390" height="160" as="geometry" 
/>
        </mxCell>
        <mxCell id="EIWtW14MWvJl-eXGEkqy-45" value="- _editions: 
List&amp;lt;Edition&amp;gt;&lt;br&gt;- _autor: Autor" 
style="text;strokeColor=none;fillColor=none;align=left;verticalAlign=top;spacingLeft=4;spacingRight=4;overflow=hidden;rotatable=0;points=[[0,0.5],[1,0.5]];portConstraint=eastwest;whiteSpace=wrap;html=1;rotation=0;" 
parent="EIWtW14MWvJl-eXGEkqy-44" vertex="1">
          <mxGeometry y="26" width="390" height="40" as="geometry" />
        </mxCell>
        <mxCell id="EIWtW14MWvJl-eXGEkqy-46" value="" 
style="line;strokeWidth=1;fillColor=none;align=left;verticalAlign=middle;spacingTop=-1;spacingLeft=3;spacingRight=3;rotatable=0;labelPosition=right;points=[];portConstraint=eastwest;strokeColor=inherit;" 
parent="EIWtW14MWvJl-eXGEkqy-44" vertex="1">
          <mxGeometry y="66" width="390" height="8" as="geometry" />
        </mxCell>
        <mxCell id="EIWtW14MWvJl-eXGEkqy-47" value="&lt;p 
style=&quot;border-color: var(--border-color); margin: 0px 0px 0px 
4px;&quot;&gt;+ GetEditions()&lt;/p&gt;&lt;p style=&quot;border-color: 
var(--border-color); margin: 0px 0px 0px 4px;&quot;&gt;+ 
AddEdition(edition: Edition)&lt;/p&gt;&lt;p style=&quot;border-color: 
var(--border-color); margin: 0px 0px 0px 4px;&quot;&gt;+ 
RemoveEdition(edition: Edition)&lt;/p&gt;&lt;p style=&quot;border-color: 
var(--border-color); margin: 0px 0px 0px 4px;&quot;&gt;+ 
GetAutor()&lt;/p&gt;&lt;p style=&quot;border-color: var(--border-color); 
margin: 0px 0px 0px 4px;&quot;&gt;+ SetAutor(autor: Author)&lt;/p&gt;" 
style="text;strokeColor=none;fillColor=none;align=left;verticalAlign=top;spacingLeft=4;spacingRight=4;overflow=hidden;rotatable=0;points=[[0,0.5],[1,0.5]];portConstraint=eastwest;whiteSpace=wrap;html=1;rotation=0;" 
parent="EIWtW14MWvJl-eXGEkqy-44" vertex="1">
          <mxGeometry y="74" width="390" height="86" as="geometry" />
        </mxCell>
        <mxCell id="EIWtW14MWvJl-eXGEkqy-52" value="&lt;font 
style=&quot;font-size: 14px;&quot;&gt;Library&lt;/font&gt;" 
style="swimlane;fontStyle=1;align=center;verticalAlign=top;childLayout=stackLayout;horizontal=1;startSize=26;horizontalStack=0;resizeParent=1;resizeParentMax=0;resizeLast=0;collapsible=1;marginBottom=0;whiteSpace=wrap;html=1;fillColor=#dae8fc;strokeColor=#6c8ebf;" 
parent="1" vertex="1">
          <mxGeometry x="660" y="790" width="340" height="530" 
as="geometry" />
        </mxCell>
        <mxCell id="EIWtW14MWvJl-eXGEkqy-53" value="- _books: 
List&amp;lt;Book&amp;gt;&lt;br&gt;- _generics: 
List&amp;lt;Generic&amp;gt;&lt;br&gt;- _topics: 
List&amp;lt;Topic&amp;gt;&lt;br&gt;- _autors: 
List&amp;lt;Autor&amp;gt;&lt;br&gt;- _publishers: 
List&amp;lt;Publisher&amp;gt;&lt;br&gt;- _languages: 
List&amp;lt;Language&amp;gt;&lt;br&gt;- _locations: 
List&amp;lt;Location&amp;gt;&lt;br&gt;- _payments: 
List&amp;lt;Payment&amp;gt;&lt;br&gt;- _users: 
List&amp;lt;Users&amp;gt;&lt;br&gt;- _employees: 
List&amp;lt;Empolyee&amp;gt;" 
style="text;strokeColor=none;fillColor=none;align=left;verticalAlign=top;spacingLeft=4;spacingRight=4;overflow=hidden;rotatable=0;points=[[0,0.5],[1,0.5]];portConstraint=eastwest;whiteSpace=wrap;html=1;" 
parent="EIWtW14MWvJl-eXGEkqy-52" vertex="1">
          <mxGeometry y="26" width="340" height="154" as="geometry" />
        </mxCell>
        <mxCell id="EIWtW14MWvJl-eXGEkqy-54" value="" 
style="line;strokeWidth=1;fillColor=none;align=left;verticalAlign=middle;spacingTop=-1;spacingLeft=3;spacingRight=3;rotatable=0;labelPosition=right;points=[];portConstraint=eastwest;strokeColor=inherit;" 
parent="EIWtW14MWvJl-eXGEkqy-52" vertex="1">
          <mxGeometry y="180" width="340" height="8" as="geometry" />
        </mxCell>
        <mxCell id="EIWtW14MWvJl-eXGEkqy-55" value="&lt;p 
style=&quot;border-color: var(--border-color); margin: 0px 0px 0px 
4px;&quot;&gt;+ GetBooks()&lt;/p&gt;&lt;p style=&quot;border-color: 
var(--border-color); margin: 0px 0px 0px 4px;&quot;&gt;+ AddBook(topic: 
Topic, generics: List&amp;lt;Generic&amp;gt;, autors: 
List&amp;lt;Autor&amp;gt;, publishers: List&amp;lt;Publisher&amp;gt;, 
language: Language)&lt;/p&gt;&lt;p style=&quot;border-color: 
var(--border-color); margin: 0px 0px 0px 4px;&quot;&gt;+ RemoveBook(book: 
Book)&lt;/p&gt;&lt;p style=&quot;border-color: var(--border-color); 
margin: 0px 0px 0px 4px;&quot;&gt;+ GetGenerics()&lt;/p&gt;&lt;p 
style=&quot;border-color: var(--border-color); margin: 0px 0px 0px 
4px;&quot;&gt;+ GetTopics()&lt;/p&gt;&lt;p style=&quot;border-color: 
var(--border-color); margin: 0px 0px 0px 4px;&quot;&gt;+ 
GetAutors()&lt;/p&gt;&lt;p style=&quot;border-color: var(--border-color); 
margin: 0px 0px 0px 4px;&quot;&gt;+ GetPublishers()&lt;/p&gt;&lt;p 
style=&quot;border-color: var(--border-color); margin: 0px 0px 0px 
4px;&quot;&gt;+ GetLanguages()&lt;/p&gt;&lt;p style=&quot;border-color: 
var(--border-color); margin: 0px 0px 0px 4px;&quot;&gt;+ 
GetLocations()&lt;/p&gt;&lt;p style=&quot;border-color: 
var(--border-color); margin: 0px 0px 0px 4px;&quot;&gt;+ 
GetUsers()&lt;/p&gt;&lt;p style=&quot;border-color: var(--border-color); 
margin: 0px 0px 0px 4px;&quot;&gt;+ AddUser(firstName: String, lastName: 
String, pesel: String, email: String, phoneNumber: String)&lt;/p&gt;&lt;p 
style=&quot;border-color: var(--border-color); margin: 0px 0px 0px 
4px;&quot;&gt;+ RemoveUser(user: User)&lt;/p&gt;&lt;p 
style=&quot;border-color: var(--border-color); margin: 0px 0px 0px 
4px;&quot;&gt;+ GetEmployees&lt;/p&gt;&lt;p style=&quot;border-color: 
var(--border-color); margin: 0px 0px 0px 4px;&quot;&gt;+ 
AddEmployee(firstName: String, lastName: String, pesel: String, email: 
String, phoneNumber: String)&lt;/p&gt;&lt;p style=&quot;border-color: 
var(--border-color); margin: 0px 0px 0px 4px;&quot;&gt;+ AddEmployee(user: 
User)&lt;/p&gt;&lt;p style=&quot;border-color: var(--border-color); 
margin: 0px 0px 0px 4px;&quot;&gt;+ RemoveEmployee(employee: 
Employee)&lt;/p&gt;&lt;p style=&quot;border-color: var(--border-color); 
margin: 0px 0px 0px 4px;&quot;&gt;+ GetPayments()&lt;/p&gt;&lt;p 
style=&quot;border-color: var(--border-color); margin: 0px 0px 0px 
4px;&quot;&gt;+ AddPayment(deptor: User, price: Decimal, deadline: 
Date)&lt;/p&gt;&lt;p style=&quot;border-color: var(--border-color); 
margin: 0px 0px 0px 4px;&quot;&gt;+ RemovePayment(payment: 
Payment)&lt;/p&gt;" 
style="text;strokeColor=none;fillColor=none;align=left;verticalAlign=top;spacingLeft=4;spacingRight=4;overflow=hidden;rotatable=0;points=[[0,0.5],[1,0.5]];portConstraint=eastwest;whiteSpace=wrap;html=1;rotation=0;" 
parent="EIWtW14MWvJl-eXGEkqy-52" vertex="1">
          <mxGeometry y="188" width="340" height="342" as="geometry" />
        </mxCell>
        <mxCell id="XDDPpy6xa9LlmRaPZi7B-1" value="&lt;b 
style=&quot;border-color: var(--border-color);&quot;&gt;&lt;font 
style=&quot;font-size: 14px;&quot;&gt;BorrowedCopy&lt;/font&gt;&lt;/b&gt;" 
style="swimlane;fontStyle=1;align=center;verticalAlign=top;childLayout=stackLayout;horizontal=1;startSize=26;horizontalStack=0;resizeParent=1;resizeParentMax=0;resizeLast=0;collapsible=1;marginBottom=0;whiteSpace=wrap;html=1;fillColor=#dae8fc;strokeColor=#6c8ebf;" 
parent="1" vertex="1">
          <mxGeometry x="2150" y="-390" width="330" height="180" 
as="geometry" />
        </mxCell>
        <mxCell id="XDDPpy6xa9LlmRaPZi7B-2" value="&lt;p 
style=&quot;border-color: var(--border-color); margin: 0px 0px 0px 
4px;&quot;&gt;- _bookCopyID: String&lt;/p&gt;&lt;p 
style=&quot;border-color: var(--border-color); margin: 0px 0px 0px 
4px;&quot;&gt;- _section: Section&lt;/p&gt;&lt;p style=&quot;border-color: 
var(--border-color); margin: 0px 0px 0px 4px;&quot;&gt;- _borrower: 
User&lt;br&gt;&lt;/p&gt;&lt;p style=&quot;border-color: 
var(--border-color); margin: 0px 0px 0px 4px;&quot;&gt;&lt;span 
style=&quot;background-color: initial;&quot;&gt;- _borrowedDate: 
Date&lt;/span&gt;&lt;/p&gt;" 
style="text;strokeColor=none;fillColor=none;align=left;verticalAlign=top;spacingLeft=4;spacingRight=4;overflow=hidden;rotatable=0;points=[[0,0.5],[1,0.5]];portConstraint=eastwest;whiteSpace=wrap;html=1;rotation=0;" 
parent="XDDPpy6xa9LlmRaPZi7B-1" vertex="1">
          <mxGeometry y="26" width="330" height="62" as="geometry" />
        </mxCell>
        <mxCell id="XDDPpy6xa9LlmRaPZi7B-3" value="" 
style="line;strokeWidth=1;fillColor=none;align=left;verticalAlign=middle;spacingTop=-1;spacingLeft=3;spacingRight=3;rotatable=0;labelPosition=right;points=[];portConstraint=eastwest;strokeColor=inherit;" 
parent="XDDPpy6xa9LlmRaPZi7B-1" vertex="1">
          <mxGeometry y="88" width="330" height="8" as="geometry" />
        </mxCell>
        <mxCell id="XDDPpy6xa9LlmRaPZi7B-4" value="&lt;p 
style=&quot;border-color: var(--border-color); margin: 0px 0px 0px 
4px;&quot;&gt;+ ReturnBook()&lt;/p&gt;&lt;p style=&quot;border-color: 
var(--border-color); margin: 0px 0px 0px 4px;&quot;&gt;+ IsAvaible()&lt;br 
style=&quot;border-color: var(--border-color);&quot;&gt;+ 
IsBorrowed()&lt;br style=&quot;border-color: 
var(--border-color);&quot;&gt;+ IsOrdered()&lt;br 
style=&quot;border-color: var(--border-color);&quot;&gt;+ 
GetDueDate()&lt;br&gt;&lt;/p&gt;" 
style="text;strokeColor=none;fillColor=none;align=left;verticalAlign=top;spacingLeft=4;spacingRight=4;overflow=hidden;rotatable=0;points=[[0,0.5],[1,0.5]];portConstraint=eastwest;whiteSpace=wrap;html=1;rotation=0;" 
parent="XDDPpy6xa9LlmRaPZi7B-1" vertex="1">
          <mxGeometry y="96" width="330" height="84" as="geometry" />
        </mxCell>
        <mxCell id="XDDPpy6xa9LlmRaPZi7B-5" value="&lt;b 
style=&quot;border-color: var(--border-color);&quot;&gt;&lt;font 
style=&quot;font-size: 14px;&quot;&gt;ReservedCopy&lt;/font&gt;&lt;/b&gt;" 
style="swimlane;fontStyle=1;align=center;verticalAlign=top;childLayout=stackLayout;horizontal=1;startSize=26;horizontalStack=0;resizeParent=1;resizeParentMax=0;resizeLast=0;collapsible=1;marginBottom=0;whiteSpace=wrap;html=1;fillColor=#dae8fc;strokeColor=#6c8ebf;" 
parent="1" vertex="1">
          <mxGeometry x="2150" y="-180" width="330" height="190" 
as="geometry" />
        </mxCell>
        <mxCell id="XDDPpy6xa9LlmRaPZi7B-6" value="&lt;p 
style=&quot;border-color: var(--border-color); margin: 0px 0px 0px 
4px;&quot;&gt;- _bookCopyID: String&lt;/p&gt;&lt;p 
style=&quot;border-color: var(--border-color); margin: 0px 0px 0px 
4px;&quot;&gt;- _section: Section&lt;/p&gt;&lt;p style=&quot;border-color: 
var(--border-color); margin: 0px 0px 0px 4px;&quot;&gt;- _borrower: 
User&lt;br&gt;&lt;/p&gt;&lt;p style=&quot;border-color: 
var(--border-color); margin: 0px 0px 0px 4px;&quot;&gt;&lt;span 
style=&quot;background-color: initial;&quot;&gt;- _reservedDate: 
Date&lt;/span&gt;&lt;/p&gt;" 
style="text;strokeColor=none;fillColor=none;align=left;verticalAlign=top;spacingLeft=4;spacingRight=4;overflow=hidden;rotatable=0;points=[[0,0.5],[1,0.5]];portConstraint=eastwest;whiteSpace=wrap;html=1;rotation=0;" 
parent="XDDPpy6xa9LlmRaPZi7B-5" vertex="1">
          <mxGeometry y="26" width="330" height="60" as="geometry" />
        </mxCell>
        <mxCell id="XDDPpy6xa9LlmRaPZi7B-7" value="" 
style="line;strokeWidth=1;fillColor=none;align=left;verticalAlign=middle;spacingTop=-1;spacingLeft=3;spacingRight=3;rotatable=0;labelPosition=right;points=[];portConstraint=eastwest;strokeColor=inherit;" 
parent="XDDPpy6xa9LlmRaPZi7B-5" vertex="1">
          <mxGeometry y="86" width="330" height="8" as="geometry" />
        </mxCell>
        <mxCell id="XDDPpy6xa9LlmRaPZi7B-8" value="&lt;p 
style=&quot;border-color: var(--border-color); margin: 0px 0px 0px 
4px;&quot;&gt;+ ChancelReservation()&lt;/p&gt;&lt;p 
style=&quot;border-color: var(--border-color); margin: 0px 0px 0px 
4px;&quot;&gt;+ CollectReservation()&lt;/p&gt;&lt;p 
style=&quot;border-color: var(--border-color); margin: 0px 0px 0px 
4px;&quot;&gt;+ IsAvaible()&lt;br style=&quot;border-color: 
var(--border-color);&quot;&gt;+ IsBorrowed()&lt;br 
style=&quot;border-color: var(--border-color);&quot;&gt;+ 
IsOrdered()&lt;br style=&quot;border-color: 
var(--border-color);&quot;&gt;+ GetDueDate()&lt;br&gt;&lt;/p&gt;" 
style="text;strokeColor=none;fillColor=none;align=left;verticalAlign=top;spacingLeft=4;spacingRight=4;overflow=hidden;rotatable=0;points=[[0,0.5],[1,0.5]];portConstraint=eastwest;whiteSpace=wrap;html=1;rotation=0;" 
parent="XDDPpy6xa9LlmRaPZi7B-5" vertex="1">
          <mxGeometry y="94" width="330" height="96" as="geometry" />
        </mxCell>
        <mxCell id="XDDPpy6xa9LlmRaPZi7B-13" value="&lt;font 
style=&quot;font-size: 14px;&quot;&gt;User&lt;/font&gt;" 
style="swimlane;fontStyle=1;align=center;verticalAlign=top;childLayout=stackLayout;horizontal=1;startSize=26;horizontalStack=0;resizeParent=1;resizeParentMax=0;resizeLast=0;collapsible=1;marginBottom=0;whiteSpace=wrap;html=1;fillColor=#dae8fc;strokeColor=#6c8ebf;" 
parent="1" vertex="1">
          <mxGeometry x="670" y="1450" width="340" height="370" 
as="geometry" />
        </mxCell>
        <mxCell id="XDDPpy6xa9LlmRaPZi7B-14" value="&lt;div&gt;- _userID: 
String&lt;/div&gt;&lt;div&gt;- _firstName: String&lt;/div&gt;&lt;div&gt;- 
_lastName: String&lt;/div&gt;&lt;div&gt;- _email: 
String&lt;/div&gt;&lt;div&gt;- _phoneNumber: 
String&lt;/div&gt;&lt;div&gt;- _address: String&lt;/div&gt;&lt;div&gt;- 
_dateOfBirth: Date&lt;/div&gt;&lt;div&gt;- _password: 
String&lt;/div&gt;&lt;div&gt;- _libraryCardNumber: 
String&lt;/div&gt;&lt;div&gt;- _booksBorrowed: 
List&amp;lt;BorrowedCopy&amp;gt;&lt;/div&gt;&lt;div&gt;- _booksReserved: 
List&amp;lt;ReservedCopy&amp;gt;&lt;/div&gt;&lt;div&gt;- _userPayments: 
List&amp;lt;Payment&amp;gt;&lt;/div&gt;&lt;div&gt;- _state: 
State&lt;/div&gt;" 
style="text;strokeColor=none;fillColor=none;align=left;verticalAlign=top;spacingLeft=4;spacingRight=4;overflow=hidden;rotatable=0;points=[[0,0.5],[1,0.5]];portConstraint=eastwest;whiteSpace=wrap;html=1;" 
parent="XDDPpy6xa9LlmRaPZi7B-13" vertex="1">
          <mxGeometry y="26" width="340" height="194" as="geometry" />
        </mxCell>
        <mxCell id="XDDPpy6xa9LlmRaPZi7B-15" value="" 
style="line;strokeWidth=1;fillColor=none;align=left;verticalAlign=middle;spacingTop=-1;spacingLeft=3;spacingRight=3;rotatable=0;labelPosition=right;points=[];portConstraint=eastwest;strokeColor=inherit;" 
parent="XDDPpy6xa9LlmRaPZi7B-13" vertex="1">
          <mxGeometry y="220" width="340" height="8" as="geometry" />
        </mxCell>
        <mxCell id="XDDPpy6xa9LlmRaPZi7B-16" value="&lt;p 
style=&quot;border-color: var(--border-color); margin: 0px 0px 0px 
4px;&quot;&gt;+ GetUserID()&lt;/p&gt;&lt;p style=&quot;border-color: 
var(--border-color); margin: 0px 0px 0px 4px;&quot;&gt;+ &quot;Get i Set 
dla wszystkich danych osobowych&quot;&lt;/p&gt;&lt;p 
style=&quot;border-color: var(--border-color); margin: 0px 0px 0px 
4px;&quot;&gt;+ GetLibaryCardNumber()&lt;/p&gt;&lt;p 
style=&quot;border-color: var(--border-color); margin: 0px 0px 0px 
4px;&quot;&gt;+ GetBorrowedBooks()&lt;/p&gt;&lt;p 
style=&quot;border-color: var(--border-color); margin: 0px 0px 0px 
4px;&quot;&gt;+ GetReservedBooks()&lt;/p&gt;&lt;p 
style=&quot;border-color: var(--border-color); margin: 0px 0px 0px 
4px;&quot;&gt;+ ReserveBook(bookCopy: BookCopy, date: Date)&lt;/p&gt;&lt;p 
style=&quot;border-color: var(--border-color); margin: 0px 0px 0px 
4px;&quot;&gt;+ CancelBook(reservedCopy: ReservedCopy)&lt;/p&gt;&lt;p 
style=&quot;border-color: var(--border-color); margin: 0px 0px 0px 
4px;&quot;&gt;+ GetPayments()&lt;/p&gt;&lt;p style=&quot;border-color: 
var(--border-color); margin: 0px 0px 0px 4px;&quot;&gt;+ Pay(payment: 
Payment)&lt;/p&gt;&lt;p style=&quot;border-color: var(--border-color); 
margin: 0px 0px 0px 4px;&quot;&gt;&lt;br&gt;&lt;/p&gt;" 
style="text;strokeColor=none;fillColor=none;align=left;verticalAlign=top;spacingLeft=4;spacingRight=4;overflow=hidden;rotatable=0;points=[[0,0.5],[1,0.5]];portConstraint=eastwest;whiteSpace=wrap;html=1;rotation=0;" 
parent="XDDPpy6xa9LlmRaPZi7B-13" vertex="1">
          <mxGeometry y="228" width="340" height="142" as="geometry" />
        </mxCell>
        <mxCell id="XDDPpy6xa9LlmRaPZi7B-17" value="&lt;font 
style=&quot;font-size: 14px;&quot;&gt;Employee&lt;/font&gt;" 
style="swimlane;fontStyle=1;align=center;verticalAlign=top;childLayout=stackLayout;horizontal=1;startSize=26;horizontalStack=0;resizeParent=1;resizeParentMax=0;resizeLast=0;collapsible=1;marginBottom=0;whiteSpace=wrap;html=1;fillColor=#dae8fc;strokeColor=#6c8ebf;" 
parent="1" vertex="1">
          <mxGeometry x="420" y="1970" width="340" height="420" 
as="geometry" />
        </mxCell>
        <mxCell id="XDDPpy6xa9LlmRaPZi7B-18" 
value="&lt;div&gt;&lt;div&gt;- _userID: String&lt;/div&gt;&lt;div&gt;- 
_firstName: String&lt;/div&gt;&lt;div&gt;- _lastName: 
String&lt;/div&gt;&lt;div&gt;- _email: String&lt;/div&gt;&lt;div&gt;- 
_phoneNumber: String&lt;/div&gt;&lt;div&gt;- _address: 
String&lt;/div&gt;&lt;div&gt;- _dateOfBirth: Date&lt;/div&gt;&lt;div&gt;- 
_password: String&lt;/div&gt;&lt;div&gt;- _libraryCardNumber: 
String&lt;/div&gt;&lt;div&gt;- _booksBorrowed: 
List&amp;lt;BorrowedCopy&amp;gt;&lt;/div&gt;&lt;div&gt;- _booksReserved: 
List&amp;lt;ReservedCopy&amp;gt;&lt;/div&gt;&lt;div&gt;- _userPayments: 
List&amp;lt;Payment&amp;gt;&lt;/div&gt;&lt;div&gt;- _state: 
State&lt;/div&gt;&lt;/div&gt;&lt;div&gt;&lt;br&gt;&lt;/div&gt;&lt;div&gt;- 
_salary: Decimal&lt;/div&gt;&lt;div&gt;- _hireDate: Date&lt;/div&gt;" 
style="text;strokeColor=none;fillColor=none;align=left;verticalAlign=top;spacingLeft=4;spacingRight=4;overflow=hidden;rotatable=0;points=[[0,0.5],[1,0.5]];portConstraint=eastwest;whiteSpace=wrap;html=1;" 
parent="XDDPpy6xa9LlmRaPZi7B-17" vertex="1">
          <mxGeometry y="26" width="340" height="234" as="geometry" />
        </mxCell>
        <mxCell id="XDDPpy6xa9LlmRaPZi7B-19" value="" 
style="line;strokeWidth=1;fillColor=none;align=left;verticalAlign=middle;spacingTop=-1;spacingLeft=3;spacingRight=3;rotatable=0;labelPosition=right;points=[];portConstraint=eastwest;strokeColor=inherit;" 
parent="XDDPpy6xa9LlmRaPZi7B-17" vertex="1">
          <mxGeometry y="260" width="340" height="8" as="geometry" />
        </mxCell>
        <mxCell id="XDDPpy6xa9LlmRaPZi7B-20" value="&lt;p 
style=&quot;border-color: var(--border-color); margin: 0px 0px 0px 
4px;&quot;&gt;+ GetSalary()&lt;/p&gt;&lt;p style=&quot;border-color: 
var(--border-color); margin: 0px 0px 0px 4px;&quot;&gt;+ 
GetHireDate()&lt;/p&gt;&lt;p style=&quot;border-color: 
var(--border-color); margin: 0px 0px 0px 4px;&quot;&gt;+ 
RegisterUser(&quot;wszystkie dane usera&quot;)&lt;/p&gt;&lt;p 
style=&quot;border-color: var(--border-color); margin: 0px 0px 0px 
4px;&quot;&gt;+ MakePayment(deptor: User, price: Decimal, deadline: Date, 
reason: String)&lt;/p&gt;&lt;p style=&quot;border-color: 
var(--border-color); margin: 0px 0px 0px 4px;&quot;&gt;+ Pay(user: User, 
payment: Payment)&lt;/p&gt;&lt;p style=&quot;border-color: 
var(--border-color); margin: 0px 0px 0px 4px;&quot;&gt;+ 
ExtendReturnDate(borrowedBook: BorrowedBook)&lt;/p&gt;&lt;p 
style=&quot;border-color: var(--border-color); margin: 0px 0px 0px 
4px;&quot;&gt;+ Ban(user: User)&lt;/p&gt;&lt;p style=&quot;border-color: 
var(--border-color); margin: 0px 0px 0px 4px;&quot;&gt;+ 
MarkAsDamaged(bookCopy: BookCopy, dameger: User, damegedDate: 
Date)&lt;/p&gt;" 
style="text;strokeColor=none;fillColor=none;align=left;verticalAlign=top;spacingLeft=4;spacingRight=4;overflow=hidden;rotatable=0;points=[[0,0.5],[1,0.5]];portConstraint=eastwest;whiteSpace=wrap;html=1;rotation=0;" 
parent="XDDPpy6xa9LlmRaPZi7B-17" vertex="1">
          <mxGeometry y="268" width="340" height="152" as="geometry" />
        </mxCell>
        <mxCell id="XDDPpy6xa9LlmRaPZi7B-21" value="&lt;font 
style=&quot;font-size: 14px;&quot;&gt;Admin&lt;/font&gt;" 
style="swimlane;fontStyle=1;align=center;verticalAlign=top;childLayout=stackLayout;horizontal=1;startSize=26;horizontalStack=0;resizeParent=1;resizeParentMax=0;resizeLast=0;collapsible=1;marginBottom=0;whiteSpace=wrap;html=1;fillColor=#dae8fc;strokeColor=#6c8ebf;" 
parent="1" vertex="1">
          <mxGeometry x="920" y="1970" width="340" height="510" 
as="geometry" />
        </mxCell>
        <mxCell id="XDDPpy6xa9LlmRaPZi7B-22" value="&lt;div 
style=&quot;border-color: var(--border-color);&quot;&gt;&lt;div 
style=&quot;border-color: var(--border-color);&quot;&gt;- _userID: 
String&lt;/div&gt;&lt;div style=&quot;border-color: 
var(--border-color);&quot;&gt;- _firstName: String&lt;/div&gt;&lt;div 
style=&quot;border-color: var(--border-color);&quot;&gt;- _lastName: 
String&lt;/div&gt;&lt;div style=&quot;border-color: 
var(--border-color);&quot;&gt;- _email: String&lt;/div&gt;&lt;div 
style=&quot;border-color: var(--border-color);&quot;&gt;- _phoneNumber: 
String&lt;/div&gt;&lt;div style=&quot;border-color: 
var(--border-color);&quot;&gt;- _address: String&lt;/div&gt;&lt;div 
style=&quot;border-color: var(--border-color);&quot;&gt;- _dateOfBirth: 
Date&lt;/div&gt;&lt;div style=&quot;border-color: 
var(--border-color);&quot;&gt;- _password: String&lt;/div&gt;&lt;div 
style=&quot;border-color: var(--border-color);&quot;&gt;- 
_libraryCardNumber: String&lt;/div&gt;&lt;div style=&quot;border-color: 
var(--border-color);&quot;&gt;- _booksBorrowed: 
List&amp;lt;BorrowedCopy&amp;gt;&lt;/div&gt;&lt;div 
style=&quot;border-color: var(--border-color);&quot;&gt;- _booksReserved: 
List&amp;lt;ReservedCopy&amp;gt;&lt;/div&gt;&lt;div 
style=&quot;border-color: var(--border-color);&quot;&gt;- _userPayments: 
List&amp;lt;Payment&amp;gt;&lt;/div&gt;&lt;div style=&quot;border-color: 
var(--border-color);&quot;&gt;- _state: 
State&lt;/div&gt;&lt;/div&gt;&lt;div style=&quot;border-color: 
var(--border-color);&quot;&gt;&lt;br&gt;&lt;/div&gt;&lt;div 
style=&quot;border-color: 
var(--border-color);&quot;&gt;&lt;br&gt;&lt;/div&gt;" 
style="text;strokeColor=none;fillColor=none;align=left;verticalAlign=top;spacingLeft=4;spacingRight=4;overflow=hidden;rotatable=0;points=[[0,0.5],[1,0.5]];portConstraint=eastwest;whiteSpace=wrap;html=1;" 
parent="XDDPpy6xa9LlmRaPZi7B-21" vertex="1">
          <mxGeometry y="26" width="340" height="194" as="geometry" />
        </mxCell>
        <mxCell id="XDDPpy6xa9LlmRaPZi7B-23" value="" 
style="line;strokeWidth=1;fillColor=none;align=left;verticalAlign=middle;spacingTop=-1;spacingLeft=3;spacingRight=3;rotatable=0;labelPosition=right;points=[];portConstraint=eastwest;strokeColor=inherit;" 
parent="XDDPpy6xa9LlmRaPZi7B-21" vertex="1">
          <mxGeometry y="220" width="340" height="8" as="geometry" />
        </mxCell>
        <mxCell id="XDDPpy6xa9LlmRaPZi7B-24" value="&lt;p 
style=&quot;border-color: var(--border-color); margin: 0px 0px 0px 
4px;&quot;&gt;+ AddBook(&quot;informacje o książce&quot;)&lt;/p&gt;&lt;p 
style=&quot;border-color: var(--border-color); margin: 0px 0px 0px 
4px;&quot;&gt;+ RemoveBook(book: Book)&lt;/p&gt;&lt;p 
style=&quot;border-color: var(--border-color); margin: 0px 0px 0px 
4px;&quot;&gt;+ EditBook(book: Book, &quot;nowe informacje o 
książce&quot;)&lt;/p&gt;&lt;p style=&quot;border-color: 
var(--border-color); margin: 0px 0px 0px 4px;&quot;&gt;+ 
MakePayment(deptor: User, price: Decimal, deadline: Date, reason: 
String)&lt;/p&gt;&lt;p style=&quot;border-color: var(--border-color); 
margin: 0px 0px 0px 4px;&quot;&gt;+ RegisterUser(&quot;wszystkie dane 
usera&quot;)&lt;/p&gt;&lt;p style=&quot;border-color: var(--border-color); 
margin: 0px 0px 0px 4px;&quot;&gt;+ RemoveUser(user: User)&lt;/p&gt;&lt;p 
style=&quot;border-color: var(--border-color); margin: 0px 0px 0px 
4px;&quot;&gt;+ BanUser(user: User)&lt;/p&gt;&lt;p 
style=&quot;border-color: var(--border-color); margin: 0px 0px 0px 
4px;&quot;&gt;+ UnbanUser(user:User)&lt;/p&gt;&lt;p 
style=&quot;border-color: var(--border-color); margin: 0px 0px 0px 
4px;&quot;&gt;+ MakePayment(deptor: User, price: Decimal, deadline: Date, 
reason: String)&lt;/p&gt;&lt;p style=&quot;border-color: 
var(--border-color); margin: 0px 0px 0px 4px;&quot;&gt;+ 
RemovePayment(payment: Payment)&lt;/p&gt;&lt;p style=&quot;border-color: 
var(--border-color); margin: 0px 0px 0px 4px;&quot;&gt;+ 
ExtendReturnDate(borrowedBook: BorrowedBook)&lt;/p&gt;&lt;p 
style=&quot;border-color: var(--border-color); margin: 0px 0px 0px 
4px;&quot;&gt;+ ExtendPaymentDeadline(payment: Payment)&lt;/p&gt;&lt;p 
style=&quot;border-color: var(--border-color); margin: 0px 0px 0px 
4px;&quot;&gt;+ PromoteToEmployee(user: User, salary: Decimal, hireDate: 
Date)&lt;/p&gt;&lt;p style=&quot;border-color: var(--border-color); 
margin: 0px 0px 0px 4px;&quot;&gt;+&amp;nbsp;MarkAsDamaged(bookCopy: 
BookCopy, dameger: User, damegedDate: Date)&lt;/p&gt;&lt;p 
style=&quot;border-color: var(--border-color); margin: 0px 0px 0px 
4px;&quot;&gt;+ Restore(damagedCopy: DamegedCopy)&lt;/p&gt;" 
style="text;strokeColor=none;fillColor=none;align=left;verticalAlign=top;spacingLeft=4;spacingRight=4;overflow=hidden;rotatable=0;points=[[0,0.5],[1,0.5]];portConstraint=eastwest;whiteSpace=wrap;html=1;rotation=0;" 
parent="XDDPpy6xa9LlmRaPZi7B-21" vertex="1">
          <mxGeometry y="228" width="340" height="282" as="geometry" />
        </mxCell>
        <mxCell id="XDDPpy6xa9LlmRaPZi7B-25" value="" 
style="endArrow=diamondThin;endFill=1;endSize=24;html=1;rounded=0;entryX=1;entryY=0.5;entryDx=0;entryDy=0;exitX=0;exitY=0.5;exitDx=0;exitDy=0;" 
parent="1" source="EIWtW14MWvJl-eXGEkqy-41" 
target="FMBArwRHaRoccxMsV3ws-12" edge="1">
          <mxGeometry width="160" relative="1" as="geometry">
            <mxPoint x="500" y="400" as="sourcePoint" />
            <mxPoint x="660" y="400" as="targetPoint" />
          </mxGeometry>
        </mxCell>
        <mxCell id="XDDPpy6xa9LlmRaPZi7B-26" value="" 
style="endArrow=diamondThin;endFill=1;endSize=24;html=1;rounded=0;entryX=1;entryY=0.5;entryDx=0;entryDy=0;exitX=0;exitY=0.5;exitDx=0;exitDy=0;" 
parent="1" source="FMBArwRHaRoccxMsV3ws-42" 
target="EIWtW14MWvJl-eXGEkqy-41" edge="1">
          <mxGeometry width="160" relative="1" as="geometry">
            <mxPoint x="500" y="260" as="sourcePoint" />
            <mxPoint x="660" y="260" as="targetPoint" />
          </mxGeometry>
        </mxCell>
        <mxCell id="XDDPpy6xa9LlmRaPZi7B-30" value="" 
style="endArrow=diamondThin;endFill=0;endSize=24;html=1;rounded=0;edgeStyle=orthogonalEdgeStyle;" 
parent="1" source="EIWtW14MWvJl-eXGEkqy-44" 
target="EIWtW14MWvJl-eXGEkqy-43" edge="1">
          <mxGeometry width="160" relative="1" as="geometry">
            <mxPoint x="700" y="260" as="sourcePoint" />
            <mxPoint x="860" y="260" as="targetPoint" />
            <Array as="points">
              <mxPoint x="200" y="190" />
              <mxPoint x="685" y="190" />
            </Array>
          </mxGeometry>
        </mxCell>
        <mxCell id="XDDPpy6xa9LlmRaPZi7B-31" value="" 
style="endArrow=diamondThin;endFill=1;endSize=24;html=1;rounded=0;" 
parent="1" source="EIWtW14MWvJl-eXGEkqy-47" 
target="FMBArwRHaRoccxMsV3ws-24" edge="1">
          <mxGeometry width="160" relative="1" as="geometry">
            <mxPoint x="330" y="400" as="sourcePoint" />
            <mxPoint x="490" y="400" as="targetPoint" />
          </mxGeometry>
        </mxCell>
        <mxCell id="XDDPpy6xa9LlmRaPZi7B-32" value="" 
style="endArrow=block;endSize=16;endFill=0;html=1;rounded=0;edgeStyle=orthogonalEdgeStyle;" 
parent="1" source="XDDPpy6xa9LlmRaPZi7B-1" 
target="FMBArwRHaRoccxMsV3ws-41" edge="1">
          <mxGeometry width="160" relative="1" as="geometry">
            <mxPoint x="1495" y="153" as="sourcePoint" />
            <mxPoint x="1655" y="153" as="targetPoint" />
            <Array as="points">
              <mxPoint x="2110" y="-247" />
              <mxPoint x="2110" y="-37" />
            </Array>
          </mxGeometry>
        </mxCell>
        <mxCell id="XDDPpy6xa9LlmRaPZi7B-33" value="" 
style="endArrow=block;endSize=16;endFill=0;html=1;rounded=0;edgeStyle=orthogonalEdgeStyle;" 
parent="1" source="XDDPpy6xa9LlmRaPZi7B-5" 
target="FMBArwRHaRoccxMsV3ws-41" edge="1">
          <mxGeometry width="160" relative="1" as="geometry">
            <mxPoint x="2121" y="-87" as="sourcePoint" />
            <mxPoint x="2009" y="-57" as="targetPoint" />
            <Array as="points">
              <mxPoint x="2110" y="-82" />
              <mxPoint x="2110" y="-37" />
            </Array>
          </mxGeometry>
        </mxCell>
        <mxCell id="XDDPpy6xa9LlmRaPZi7B-34" value="" 
style="endArrow=block;endSize=16;endFill=0;html=1;rounded=0;edgeStyle=orthogonalEdgeStyle;" 
parent="1" source="3VBd_VB_IdiQkLcemd7t-5" 
target="FMBArwRHaRoccxMsV3ws-41" edge="1">
          <mxGeometry width="160" relative="1" as="geometry">
            <mxPoint x="2095" y="87" as="sourcePoint" />
            <mxPoint x="2025" y="-17" as="targetPoint" />
            <Array as="points">
              <mxPoint x="2110" y="163" />
              <mxPoint x="2110" y="-37" />
            </Array>
          </mxGeometry>
        </mxCell>
        <mxCell id="XDDPpy6xa9LlmRaPZi7B-35" value="" 
style="endArrow=diamondThin;endFill=0;endSize=24;html=1;rounded=0;" 
parent="1" source="EIWtW14MWvJl-eXGEkqy-2" 
target="FMBArwRHaRoccxMsV3ws-41" edge="1">
          <mxGeometry width="160" relative="1" as="geometry">
            <mxPoint x="1575" y="333" as="sourcePoint" />
            <mxPoint x="1735" y="333" as="targetPoint" />
          </mxGeometry>
        </mxCell>
        <mxCell id="XDDPpy6xa9LlmRaPZi7B-36" value="&lt;font 
style=&quot;font-size: 14px;&quot;&gt;Location&lt;/font&gt;" 
style="swimlane;fontStyle=1;align=center;verticalAlign=top;childLayout=stackLayout;horizontal=1;startSize=26;horizontalStack=0;resizeParent=1;resizeParentMax=0;resizeLast=0;collapsible=1;marginBottom=0;whiteSpace=wrap;html=1;fillColor=#dae8fc;strokeColor=#6c8ebf;" 
parent="1" vertex="1">
          <mxGeometry x="1680" y="520" width="340" height="120" 
as="geometry" />
        </mxCell>
        <mxCell id="XDDPpy6xa9LlmRaPZi7B-37" value="&lt;p 
style=&quot;border-color: var(--border-color); margin: 0px 0px 0px 
4px;&quot;&gt;- _locationID: String&lt;/p&gt;&lt;p 
style=&quot;border-color: var(--border-color); margin: 0px 0px 0px 
4px;&quot;&gt;- _sections: List&amp;lt;Section&amp;gt;&lt;/p&gt;" 
style="text;strokeColor=none;fillColor=none;align=left;verticalAlign=top;spacingLeft=4;spacingRight=4;overflow=hidden;rotatable=0;points=[[0,0.5],[1,0.5]];portConstraint=eastwest;whiteSpace=wrap;html=1;" 
parent="XDDPpy6xa9LlmRaPZi7B-36" vertex="1">
          <mxGeometry y="26" width="340" height="34" as="geometry" />
        </mxCell>
        <mxCell id="XDDPpy6xa9LlmRaPZi7B-38" value="" 
style="line;strokeWidth=1;fillColor=none;align=left;verticalAlign=middle;spacingTop=-1;spacingLeft=3;spacingRight=3;rotatable=0;labelPosition=right;points=[];portConstraint=eastwest;strokeColor=inherit;" 
parent="XDDPpy6xa9LlmRaPZi7B-36" vertex="1">
          <mxGeometry y="60" width="340" height="8" as="geometry" />
        </mxCell>
        <mxCell id="XDDPpy6xa9LlmRaPZi7B-39" value="&lt;p 
style=&quot;border-color: var(--border-color); margin: 0px 0px 0px 
4px;&quot;&gt;+ GetLocationID()&lt;/p&gt;&lt;p style=&quot;border-color: 
var(--border-color); margin: 0px 0px 0px 4px;&quot;&gt;+ 
GetSeections()&lt;/p&gt;&lt;p style=&quot;border-color: 
var(--border-color); margin: 0px 0px 0px 4px;&quot;&gt;+ 
SetSections(sections: List&amp;lt;Section&amp;gt;)&lt;/p&gt;" 
style="text;strokeColor=none;fillColor=none;align=left;verticalAlign=top;spacingLeft=4;spacingRight=4;overflow=hidden;rotatable=0;points=[[0,0.5],[1,0.5]];portConstraint=eastwest;whiteSpace=wrap;html=1;" 
parent="XDDPpy6xa9LlmRaPZi7B-36" vertex="1">
          <mxGeometry y="68" width="340" height="52" as="geometry" />
        </mxCell>
        <mxCell id="XDDPpy6xa9LlmRaPZi7B-40" value="" 
style="endArrow=diamondThin;endFill=1;endSize=24;html=1;rounded=0;" 
parent="1" source="EIWtW14MWvJl-eXGEkqy-2" 
target="XDDPpy6xa9LlmRaPZi7B-36" edge="1">
          <mxGeometry width="160" relative="1" as="geometry">
            <mxPoint x="1665" y="203" as="sourcePoint" />
            <mxPoint x="1825" y="203" as="targetPoint" />
          </mxGeometry>
        </mxCell>
        <mxCell id="XDDPpy6xa9LlmRaPZi7B-41" value="" 
style="endArrow=diamondThin;endFill=1;endSize=24;html=1;rounded=0;edgeStyle=orthogonalEdgeStyle;" 
parent="1" source="FMBArwRHaRoccxMsV3ws-11" 
target="EIWtW14MWvJl-eXGEkqy-52" edge="1">
          <mxGeometry width="160" relative="1" as="geometry">
            <mxPoint x="490" y="1110" as="sourcePoint" />
            <mxPoint x="650" y="1110" as="targetPoint" />
            <Array as="points">
              <mxPoint x="-150" y="740" />
              <mxPoint x="830" y="740" />
            </Array>
          </mxGeometry>
        </mxCell>
        <mxCell id="XDDPpy6xa9LlmRaPZi7B-42" value="" 
style="endArrow=diamondThin;endFill=1;endSize=24;html=1;rounded=0;edgeStyle=orthogonalEdgeStyle;" 
parent="1" source="FMBArwRHaRoccxMsV3ws-24" 
target="EIWtW14MWvJl-eXGEkqy-52" edge="1">
          <mxGeometry width="160" relative="1" as="geometry">
            <mxPoint x="490" y="710" as="sourcePoint" />
            <mxPoint x="650" y="710" as="targetPoint" />
            <Array as="points">
              <mxPoint x="200" y="740" />
              <mxPoint x="830" y="740" />
            </Array>
          </mxGeometry>
        </mxCell>
        <mxCell id="XDDPpy6xa9LlmRaPZi7B-43" value="" 
style="endArrow=diamondThin;endFill=1;endSize=24;html=1;rounded=0;edgeStyle=orthogonalEdgeStyle;" 
parent="1" source="XDDPpy6xa9LlmRaPZi7B-36" 
target="EIWtW14MWvJl-eXGEkqy-52" edge="1">
          <mxGeometry width="160" relative="1" as="geometry">
            <mxPoint x="490" y="440" as="sourcePoint" />
            <mxPoint x="650" y="440" as="targetPoint" />
            <Array as="points">
              <mxPoint x="1890" y="740" />
              <mxPoint x="830" y="740" />
            </Array>
          </mxGeometry>
        </mxCell>
        <mxCell id="XDDPpy6xa9LlmRaPZi7B-44" value="" 
style="endArrow=diamondThin;endFill=1;endSize=24;html=1;rounded=0;" 
parent="1" source="XDDPpy6xa9LlmRaPZi7B-13" 
target="EIWtW14MWvJl-eXGEkqy-52" edge="1">
          <mxGeometry width="160" relative="1" as="geometry">
            <mxPoint x="950" y="1520" as="sourcePoint" />
            <mxPoint x="1110" y="1520" as="targetPoint" />
          </mxGeometry>
        </mxCell>
        <mxCell id="XDDPpy6xa9LlmRaPZi7B-45" value="" 
style="endArrow=block;endSize=16;endFill=0;html=1;rounded=0;edgeStyle=orthogonalEdgeStyle;" 
parent="1" source="XDDPpy6xa9LlmRaPZi7B-17" 
target="XDDPpy6xa9LlmRaPZi7B-13" edge="1">
          <mxGeometry width="160" relative="1" as="geometry">
            <mxPoint x="950" y="1700" as="sourcePoint" />
            <mxPoint x="1110" y="1700" as="targetPoint" />
          </mxGeometry>
        </mxCell>
        <mxCell id="XDDPpy6xa9LlmRaPZi7B-46" value="" 
style="endArrow=block;endSize=16;endFill=0;html=1;rounded=0;edgeStyle=orthogonalEdgeStyle;" 
parent="1" source="XDDPpy6xa9LlmRaPZi7B-21" 
target="XDDPpy6xa9LlmRaPZi7B-13" edge="1">
          <mxGeometry width="160" relative="1" as="geometry">
            <mxPoint x="653" y="1910" as="sourcePoint" />
            <mxPoint x="807" y="1720" as="targetPoint" />
          </mxGeometry>
        </mxCell>
        <mxCell id="XDDPpy6xa9LlmRaPZi7B-47" value="" 
style="endArrow=diamondThin;endFill=1;endSize=24;html=1;rounded=0;" 
parent="1" source="FMBArwRHaRoccxMsV3ws-47" 
target="EIWtW14MWvJl-eXGEkqy-52" edge="1">
          <mxGeometry width="160" relative="1" as="geometry">
            <mxPoint x="840" y="1460" as="sourcePoint" />
            <mxPoint x="840" y="1310" as="targetPoint" />
          </mxGeometry>
        </mxCell>
        <mxCell id="XDDPpy6xa9LlmRaPZi7B-48" value="&lt;font 
style=&quot;font-size: 14px;&quot;&gt;State&lt;/font&gt;" 
style="swimlane;fontStyle=1;align=center;verticalAlign=top;childLayout=stackLayout;horizontal=1;startSize=26;horizontalStack=0;resizeParent=1;resizeParentMax=0;resizeLast=0;collapsible=1;marginBottom=0;whiteSpace=wrap;html=1;fillColor=#dae8fc;strokeColor=#6c8ebf;" 
parent="1" vertex="1">
          <mxGeometry x="120" y="1556" width="350" height="160" 
as="geometry" />
        </mxCell>
        <mxCell id="XDDPpy6xa9LlmRaPZi7B-49" value="//tutaj pola nie są 
konieczne. Tu chodzi o implementacje metod" 
style="text;strokeColor=none;fillColor=none;align=left;verticalAlign=top;spacingLeft=4;spacingRight=4;overflow=hidden;rotatable=0;points=[[0,0.5],[1,0.5]];portConstraint=eastwest;whiteSpace=wrap;html=1;" 
parent="XDDPpy6xa9LlmRaPZi7B-48" vertex="1">
          <mxGeometry y="26" width="350" height="24" as="geometry" />
        </mxCell>
        <mxCell id="XDDPpy6xa9LlmRaPZi7B-50" value="" 
style="line;strokeWidth=1;fillColor=none;align=left;verticalAlign=middle;spacingTop=-1;spacingLeft=3;spacingRight=3;rotatable=0;labelPosition=right;points=[];portConstraint=eastwest;strokeColor=inherit;" 
parent="XDDPpy6xa9LlmRaPZi7B-48" vertex="1">
          <mxGeometry y="50" width="350" height="8" as="geometry" />
        </mxCell>
        <mxCell id="XDDPpy6xa9LlmRaPZi7B-51" value="&lt;p 
style=&quot;border-color: var(--border-color); margin: 0px 0px 0px 
4px;&quot;&gt;+ GetBorrowedBooks()&lt;/p&gt;&lt;p 
style=&quot;border-color: var(--border-color); margin: 0px 0px 0px 
4px;&quot;&gt;+ GetReservedBooks()&lt;/p&gt;&lt;p 
style=&quot;border-color: var(--border-color); margin: 0px 0px 0px 
4px;&quot;&gt;+ ReserveBook(bookCopy: BookCopy, date: Date)&lt;/p&gt;&lt;p 
style=&quot;border-color: var(--border-color); margin: 0px 0px 0px 
4px;&quot;&gt;+ CancelBook(reservedCopy: ReservedCopy)&lt;/p&gt;&lt;p 
style=&quot;border-color: var(--border-color); margin: 0px 0px 0px 
4px;&quot;&gt;+ GetPayments()&lt;/p&gt;&lt;p style=&quot;border-color: 
var(--border-color); margin: 0px 0px 0px 4px;&quot;&gt;+ Pay(payment: 
Payment)&lt;/p&gt;&lt;p style=&quot;border-color: var(--border-color); 
margin: 0px 0px 0px 4px;&quot;&gt;&lt;br style=&quot;border-color: 
var(--border-color);&quot;&gt;&lt;/p&gt;" 
style="text;strokeColor=none;fillColor=none;align=left;verticalAlign=top;spacingLeft=4;spacingRight=4;overflow=hidden;rotatable=0;points=[[0,0.5],[1,0.5]];portConstraint=eastwest;whiteSpace=wrap;html=1;rotation=0;" 
parent="XDDPpy6xa9LlmRaPZi7B-48" vertex="1">
          <mxGeometry y="58" width="350" height="102" as="geometry" />
        </mxCell>
        <mxCell id="XDDPpy6xa9LlmRaPZi7B-52" value="" 
style="endArrow=diamondThin;endFill=0;endSize=24;html=1;rounded=0;" 
parent="1" source="XDDPpy6xa9LlmRaPZi7B-48" 
target="XDDPpy6xa9LlmRaPZi7B-13" edge="1">
          <mxGeometry width="160" relative="1" as="geometry">
            <mxPoint x="410" y="1660" as="sourcePoint" />
            <mxPoint x="570" y="1660" as="targetPoint" />
          </mxGeometry>
        </mxCell>
        <mxCell id="XDDPpy6xa9LlmRaPZi7B-54" value="&lt;font 
style=&quot;font-size: 14px;&quot;&gt;NormalState&lt;/font&gt;" 
style="swimlane;fontStyle=1;align=center;verticalAlign=top;childLayout=stackLayout;horizontal=1;startSize=26;horizontalStack=0;resizeParent=1;resizeParentMax=0;resizeLast=0;collapsible=1;marginBottom=0;whiteSpace=wrap;html=1;fillColor=#dae8fc;strokeColor=#6c8ebf;" 
parent="1" vertex="1">
          <mxGeometry x="-380" y="1426" width="340" height="160" 
as="geometry" />
        </mxCell>
        <mxCell id="XDDPpy6xa9LlmRaPZi7B-55" value="-" 
style="text;strokeColor=none;fillColor=none;align=left;verticalAlign=top;spacingLeft=4;spacingRight=4;overflow=hidden;rotatable=0;points=[[0,0.5],[1,0.5]];portConstraint=eastwest;whiteSpace=wrap;html=1;" 
parent="XDDPpy6xa9LlmRaPZi7B-54" vertex="1">
          <mxGeometry y="26" width="340" height="24" as="geometry" />
        </mxCell>
        <mxCell id="XDDPpy6xa9LlmRaPZi7B-56" value="" 
style="line;strokeWidth=1;fillColor=none;align=left;verticalAlign=middle;spacingTop=-1;spacingLeft=3;spacingRight=3;rotatable=0;labelPosition=right;points=[];portConstraint=eastwest;strokeColor=inherit;" 
parent="XDDPpy6xa9LlmRaPZi7B-54" vertex="1">
          <mxGeometry y="50" width="340" height="8" as="geometry" />
        </mxCell>
        <mxCell id="XDDPpy6xa9LlmRaPZi7B-57" value="&lt;p 
style=&quot;border-color: var(--border-color); margin: 0px 0px 0px 
4px;&quot;&gt;+ GetBorrowedBooks()&lt;/p&gt;&lt;p 
style=&quot;border-color: var(--border-color); margin: 0px 0px 0px 
4px;&quot;&gt;+ GetReservedBooks()&lt;/p&gt;&lt;p 
style=&quot;border-color: var(--border-color); margin: 0px 0px 0px 
4px;&quot;&gt;+ ReserveBook(bookCopy: BookCopy, date: Date)&lt;/p&gt;&lt;p 
style=&quot;border-color: var(--border-color); margin: 0px 0px 0px 
4px;&quot;&gt;+ CancelBook(reservedCopy: ReservedCopy)&lt;/p&gt;&lt;p 
style=&quot;border-color: var(--border-color); margin: 0px 0px 0px 
4px;&quot;&gt;+ GetPayments()&lt;/p&gt;&lt;p style=&quot;border-color: 
var(--border-color); margin: 0px 0px 0px 4px;&quot;&gt;+ Pay(payment: 
Payment)&lt;/p&gt;&lt;p style=&quot;border-color: var(--border-color); 
margin: 0px 0px 0px 4px;&quot;&gt;&lt;br style=&quot;border-color: 
var(--border-color);&quot;&gt;&lt;/p&gt;" 
style="text;strokeColor=none;fillColor=none;align=left;verticalAlign=top;spacingLeft=4;spacingRight=4;overflow=hidden;rotatable=0;points=[[0,0.5],[1,0.5]];portConstraint=eastwest;whiteSpace=wrap;html=1;rotation=0;" 
parent="XDDPpy6xa9LlmRaPZi7B-54" vertex="1">
          <mxGeometry y="58" width="340" height="102" as="geometry" />
        </mxCell>
        <mxCell id="XDDPpy6xa9LlmRaPZi7B-58" value="&lt;font 
style=&quot;font-size: 14px;&quot;&gt;BanState&lt;/font&gt;" 
style="swimlane;fontStyle=1;align=center;verticalAlign=top;childLayout=stackLayout;horizontal=1;startSize=26;horizontalStack=0;resizeParent=1;resizeParentMax=0;resizeLast=0;collapsible=1;marginBottom=0;whiteSpace=wrap;html=1;fillColor=#dae8fc;strokeColor=#6c8ebf;" 
parent="1" vertex="1">
          <mxGeometry x="-380" y="1650" width="340" height="160" 
as="geometry" />
        </mxCell>
        <mxCell id="XDDPpy6xa9LlmRaPZi7B-59" value="-" 
style="text;strokeColor=none;fillColor=none;align=left;verticalAlign=top;spacingLeft=4;spacingRight=4;overflow=hidden;rotatable=0;points=[[0,0.5],[1,0.5]];portConstraint=eastwest;whiteSpace=wrap;html=1;" 
parent="XDDPpy6xa9LlmRaPZi7B-58" vertex="1">
          <mxGeometry y="26" width="340" height="24" as="geometry" />
        </mxCell>
        <mxCell id="XDDPpy6xa9LlmRaPZi7B-60" value="" 
style="line;strokeWidth=1;fillColor=none;align=left;verticalAlign=middle;spacingTop=-1;spacingLeft=3;spacingRight=3;rotatable=0;labelPosition=right;points=[];portConstraint=eastwest;strokeColor=inherit;" 
parent="XDDPpy6xa9LlmRaPZi7B-58" vertex="1">
          <mxGeometry y="50" width="340" height="8" as="geometry" />
        </mxCell>
        <mxCell id="XDDPpy6xa9LlmRaPZi7B-61" value="&lt;p 
style=&quot;border-color: var(--border-color); margin: 0px 0px 0px 
4px;&quot;&gt;+ GetBorrowedBooks()&lt;/p&gt;&lt;p 
style=&quot;border-color: var(--border-color); margin: 0px 0px 0px 
4px;&quot;&gt;+ GetReservedBooks()&lt;/p&gt;&lt;p 
style=&quot;border-color: var(--border-color); margin: 0px 0px 0px 
4px;&quot;&gt;+ ReserveBook(bookCopy: BookCopy, date: Date)&lt;/p&gt;&lt;p 
style=&quot;border-color: var(--border-color); margin: 0px 0px 0px 
4px;&quot;&gt;+ CancelBook(reservedCopy: ReservedCopy)&lt;/p&gt;&lt;p 
style=&quot;border-color: var(--border-color); margin: 0px 0px 0px 
4px;&quot;&gt;+ GetPayments()&lt;/p&gt;&lt;p style=&quot;border-color: 
var(--border-color); margin: 0px 0px 0px 4px;&quot;&gt;+ Pay(payment: 
Payment)&lt;/p&gt;&lt;p style=&quot;border-color: var(--border-color); 
margin: 0px 0px 0px 4px;&quot;&gt;&lt;br style=&quot;border-color: 
var(--border-color);&quot;&gt;&lt;/p&gt;" 
style="text;strokeColor=none;fillColor=none;align=left;verticalAlign=top;spacingLeft=4;spacingRight=4;overflow=hidden;rotatable=0;points=[[0,0.5],[1,0.5]];portConstraint=eastwest;whiteSpace=wrap;html=1;rotation=0;" 
parent="XDDPpy6xa9LlmRaPZi7B-58" vertex="1">
          <mxGeometry y="58" width="340" height="102" as="geometry" />
        </mxCell>
        <mxCell id="XDDPpy6xa9LlmRaPZi7B-62" value="" 
style="endArrow=block;endSize=16;endFill=0;html=1;rounded=0;edgeStyle=orthogonalEdgeStyle;" 
parent="1" source="XDDPpy6xa9LlmRaPZi7B-54" 
target="XDDPpy6xa9LlmRaPZi7B-48" edge="1">
          <mxGeometry width="160" relative="1" as="geometry">
            <mxPoint x="70" y="1586" as="sourcePoint" />
            <mxPoint x="230" y="1586" as="targetPoint" />
          </mxGeometry>
        </mxCell>
        <mxCell id="XDDPpy6xa9LlmRaPZi7B-63" value="" 
style="endArrow=block;endSize=16;endFill=0;html=1;rounded=0;edgeStyle=orthogonalEdgeStyle;" 
parent="1" source="XDDPpy6xa9LlmRaPZi7B-58" 
target="XDDPpy6xa9LlmRaPZi7B-48" edge="1">
          <mxGeometry width="160" relative="1" as="geometry">
            <mxPoint x="-50" y="1596" as="sourcePoint" />
            <mxPoint x="120" y="1630" as="targetPoint" />
          </mxGeometry>
        </mxCell>
        <mxCell id="XDDPpy6xa9LlmRaPZi7B-64" value="&lt;font 
style=&quot;font-size: 14px;&quot;&gt;Publisher&lt;/font&gt;" 
style="swimlane;fontStyle=1;align=center;verticalAlign=top;childLayout=stackLayout;horizontal=1;startSize=26;horizontalStack=0;resizeParent=1;resizeParentMax=0;resizeLast=0;collapsible=1;marginBottom=0;whiteSpace=wrap;html=1;fillColor=#dae8fc;strokeColor=#6c8ebf;" 
parent="1" vertex="1">
          <mxGeometry x="515" y="525" width="360" height="140" 
as="geometry">
            <mxRectangle x="370" y="510" width="60" height="30" 
as="alternateBounds" />
          </mxGeometry>
        </mxCell>
        <mxCell id="XDDPpy6xa9LlmRaPZi7B-65" value="- _publisherName: 
String&lt;br&gt;- _publishership: Publishership&lt;br&gt;&lt;div 
style=&quot;display:none&quot; id=&quot;SDCloudData&quot;&gt;&lt;/div&gt;" 
style="text;strokeColor=none;fillColor=none;align=left;verticalAlign=top;spacingLeft=4;spacingRight=4;overflow=hidden;rotatable=0;points=[[0,0.5],[1,0.5]];portConstraint=eastwest;whiteSpace=wrap;html=1;rotation=0;" 
parent="XDDPpy6xa9LlmRaPZi7B-64" vertex="1">
          <mxGeometry y="26" width="360" height="34" as="geometry" />
        </mxCell>
        <mxCell id="XDDPpy6xa9LlmRaPZi7B-66" value="" 
style="line;strokeWidth=1;fillColor=none;align=left;verticalAlign=middle;spacingTop=-1;spacingLeft=3;spacingRight=3;rotatable=0;labelPosition=right;points=[];portConstraint=eastwest;strokeColor=inherit;" 
parent="XDDPpy6xa9LlmRaPZi7B-64" vertex="1">
          <mxGeometry y="60" width="360" height="8" as="geometry" />
        </mxCell>
        <mxCell id="XDDPpy6xa9LlmRaPZi7B-67" value="&lt;p 
style=&quot;border-color: var(--border-color); margin: 0px 0px 0px 
4px;&quot;&gt;+ GetPublisherName()&lt;/p&gt;&lt;p 
style=&quot;border-color: var(--border-color); margin: 0px 0px 0px 
4px;&quot;&gt;+ SetPublisherName(publisherName: String)&lt;/p&gt;&lt;p 
style=&quot;border-color: var(--border-color); margin: 0px 0px 0px 
4px;&quot;&gt;+ GetPublishership()&lt;/p&gt;&lt;p 
style=&quot;border-color: var(--border-color); margin: 0px 0px 0px 
4px;&quot;&gt;+ SetPublishership(publishership: Publishership)&lt;/p&gt;" 
style="text;strokeColor=none;fillColor=none;align=left;verticalAlign=top;spacingLeft=4;spacingRight=4;overflow=hidden;rotatable=0;points=[[0,0.5],[1,0.5]];portConstraint=eastwest;whiteSpace=wrap;html=1;" 
parent="XDDPpy6xa9LlmRaPZi7B-64" vertex="1">
          <mxGeometry y="68" width="360" height="72" as="geometry" />
        </mxCell>
        <mxCell id="XDDPpy6xa9LlmRaPZi7B-68" value="&lt;font 
style=&quot;font-size: 14px;&quot;&gt;Publishership(nazwa 
chwilowa)&lt;/font&gt;" 
style="swimlane;fontStyle=1;align=center;verticalAlign=top;childLayout=stackLayout;horizontal=1;startSize=26;horizontalStack=0;resizeParent=1;resizeParentMax=0;resizeLast=0;collapsible=1;marginBottom=0;whiteSpace=wrap;html=1;fillColor=#dae8fc;strokeColor=#6c8ebf;" 
parent="1" vertex="1">
          <mxGeometry x="500" y="240" width="390" height="160" 
as="geometry" />
        </mxCell>
        <mxCell id="XDDPpy6xa9LlmRaPZi7B-69" value="- _editions: 
List&amp;lt;Edition&amp;gt;&lt;br style=&quot;border-color: 
var(--border-color);&quot;&gt;- _publisher: Publisher" 
style="text;strokeColor=none;fillColor=none;align=left;verticalAlign=top;spacingLeft=4;spacingRight=4;overflow=hidden;rotatable=0;points=[[0,0.5],[1,0.5]];portConstraint=eastwest;whiteSpace=wrap;html=1;rotation=0;" 
parent="XDDPpy6xa9LlmRaPZi7B-68" vertex="1">
          <mxGeometry y="26" width="390" height="40" as="geometry" />
        </mxCell>
        <mxCell id="XDDPpy6xa9LlmRaPZi7B-70" value="" 
style="line;strokeWidth=1;fillColor=none;align=left;verticalAlign=middle;spacingTop=-1;spacingLeft=3;spacingRight=3;rotatable=0;labelPosition=right;points=[];portConstraint=eastwest;strokeColor=inherit;" 
parent="XDDPpy6xa9LlmRaPZi7B-68" vertex="1">
          <mxGeometry y="66" width="390" height="8" as="geometry" />
        </mxCell>
        <mxCell id="XDDPpy6xa9LlmRaPZi7B-71" value="&lt;p 
style=&quot;border-color: var(--border-color); margin: 0px 0px 0px 
4px;&quot;&gt;+ GetEditions()&lt;/p&gt;&lt;p style=&quot;border-color: 
var(--border-color); margin: 0px 0px 0px 4px;&quot;&gt;+ 
AddEdition(edition: Edition)&lt;/p&gt;&lt;p style=&quot;border-color: 
var(--border-color); margin: 0px 0px 0px 4px;&quot;&gt;+ 
RemoveEdition(edition: Edition)&lt;/p&gt;&lt;p style=&quot;border-color: 
var(--border-color); margin: 0px 0px 0px 4px;&quot;&gt;+ 
GetPublisher()&lt;/p&gt;&lt;p style=&quot;border-color: 
var(--border-color); margin: 0px 0px 0px 4px;&quot;&gt;+ 
SetPublisher(publisher: Publishers)&lt;/p&gt;" 
style="text;strokeColor=none;fillColor=none;align=left;verticalAlign=top;spacingLeft=4;spacingRight=4;overflow=hidden;rotatable=0;points=[[0,0.5],[1,0.5]];portConstraint=eastwest;whiteSpace=wrap;html=1;rotation=0;" 
parent="XDDPpy6xa9LlmRaPZi7B-68" vertex="1">
          <mxGeometry y="74" width="390" height="86" as="geometry" />
        </mxCell>
        <mxCell id="XDDPpy6xa9LlmRaPZi7B-72" value="" 
style="endArrow=diamondThin;endFill=1;endSize=24;html=1;rounded=0;" 
parent="1" source="XDDPpy6xa9LlmRaPZi7B-71" 
target="XDDPpy6xa9LlmRaPZi7B-64" edge="1">
          <mxGeometry width="160" relative="1" as="geometry">
            <mxPoint x="790" y="400" as="sourcePoint" />
            <mxPoint x="950" y="400" as="targetPoint" />
          </mxGeometry>
        </mxCell>
        <mxCell id="XDDPpy6xa9LlmRaPZi7B-73" value="&lt;font 
style=&quot;font-size: 14px;&quot;&gt;Language&lt;/font&gt;" 
style="swimlane;fontStyle=1;align=center;verticalAlign=top;childLayout=stackLayout;horizontal=1;startSize=26;horizontalStack=0;resizeParent=1;resizeParentMax=0;resizeLast=0;collapsible=1;marginBottom=0;whiteSpace=wrap;html=1;fillColor=#dae8fc;strokeColor=#6c8ebf;" 
parent="1" vertex="1">
          <mxGeometry x="1065" y="525" width="360" height="140" 
as="geometry">
            <mxRectangle x="370" y="510" width="60" height="30" 
as="alternateBounds" />
          </mxGeometry>
        </mxCell>
        <mxCell id="XDDPpy6xa9LlmRaPZi7B-74" value="- _languageName: 
String&lt;br&gt;- _languageship: Languageship&lt;br&gt;&lt;div 
style=&quot;display:none&quot; id=&quot;SDCloudData&quot;&gt;&lt;/div&gt;" 
style="text;strokeColor=none;fillColor=none;align=left;verticalAlign=top;spacingLeft=4;spacingRight=4;overflow=hidden;rotatable=0;points=[[0,0.5],[1,0.5]];portConstraint=eastwest;whiteSpace=wrap;html=1;rotation=0;" 
parent="XDDPpy6xa9LlmRaPZi7B-73" vertex="1">
          <mxGeometry y="26" width="360" height="34" as="geometry" />
        </mxCell>
        <mxCell id="XDDPpy6xa9LlmRaPZi7B-75" value="" 
style="line;strokeWidth=1;fillColor=none;align=left;verticalAlign=middle;spacingTop=-1;spacingLeft=3;spacingRight=3;rotatable=0;labelPosition=right;points=[];portConstraint=eastwest;strokeColor=inherit;" 
parent="XDDPpy6xa9LlmRaPZi7B-73" vertex="1">
          <mxGeometry y="60" width="360" height="8" as="geometry" />
        </mxCell>
        <mxCell id="XDDPpy6xa9LlmRaPZi7B-76" value="&lt;p 
style=&quot;border-color: var(--border-color); margin: 0px 0px 0px 
4px;&quot;&gt;+ GetLanguageName()&lt;/p&gt;&lt;p style=&quot;border-color: 
var(--border-color); margin: 0px 0px 0px 4px;&quot;&gt;+ 
SetLanguageName(languageName: String)&lt;/p&gt;&lt;p 
style=&quot;border-color: var(--border-color); margin: 0px 0px 0px 
4px;&quot;&gt;+ GetLanguageship()&lt;/p&gt;&lt;p style=&quot;border-color: 
var(--border-color); margin: 0px 0px 0px 4px;&quot;&gt;+ 
SetLanguageship(languageship: Languageship)&lt;/p&gt;&lt;p 
style=&quot;border-color: var(--border-color); margin: 0px 0px 0px 
4px;&quot;&gt;&lt;br&gt;&lt;/p&gt;" 
style="text;strokeColor=none;fillColor=none;align=left;verticalAlign=top;spacingLeft=4;spacingRight=4;overflow=hidden;rotatable=0;points=[[0,0.5],[1,0.5]];portConstraint=eastwest;whiteSpace=wrap;html=1;" 
parent="XDDPpy6xa9LlmRaPZi7B-73" vertex="1">
          <mxGeometry y="68" width="360" height="72" as="geometry" />
        </mxCell>
        <mxCell id="XDDPpy6xa9LlmRaPZi7B-77" value="&lt;font 
style=&quot;font-size: 14px;&quot;&gt;Languageship(nazwa 
chwilowa)&lt;/font&gt;" 
style="swimlane;fontStyle=1;align=center;verticalAlign=top;childLayout=stackLayout;horizontal=1;startSize=26;horizontalStack=0;resizeParent=1;resizeParentMax=0;resizeLast=0;collapsible=1;marginBottom=0;whiteSpace=wrap;html=1;fillColor=#dae8fc;strokeColor=#6c8ebf;" 
parent="1" vertex="1">
          <mxGeometry x="1050" y="240" width="390" height="160" 
as="geometry" />
        </mxCell>
        <mxCell id="XDDPpy6xa9LlmRaPZi7B-78" value="- _editions: 
List&amp;lt;Edition&amp;gt;&lt;br style=&quot;border-color: 
var(--border-color);&quot;&gt;- _language: Language" 
style="text;strokeColor=none;fillColor=none;align=left;verticalAlign=top;spacingLeft=4;spacingRight=4;overflow=hidden;rotatable=0;points=[[0,0.5],[1,0.5]];portConstraint=eastwest;whiteSpace=wrap;html=1;rotation=0;" 
parent="XDDPpy6xa9LlmRaPZi7B-77" vertex="1">
          <mxGeometry y="26" width="390" height="40" as="geometry" />
        </mxCell>
        <mxCell id="XDDPpy6xa9LlmRaPZi7B-79" value="" 
style="line;strokeWidth=1;fillColor=none;align=left;verticalAlign=middle;spacingTop=-1;spacingLeft=3;spacingRight=3;rotatable=0;labelPosition=right;points=[];portConstraint=eastwest;strokeColor=inherit;" 
parent="XDDPpy6xa9LlmRaPZi7B-77" vertex="1">
          <mxGeometry y="66" width="390" height="8" as="geometry" />
        </mxCell>
        <mxCell id="XDDPpy6xa9LlmRaPZi7B-80" value="&lt;p 
style=&quot;border-color: var(--border-color); margin: 0px 0px 0px 
4px;&quot;&gt;+ GetEditions()&lt;/p&gt;&lt;p style=&quot;border-color: 
var(--border-color); margin: 0px 0px 0px 4px;&quot;&gt;+ 
AddEdition(edition: Edition)&lt;/p&gt;&lt;p style=&quot;border-color: 
var(--border-color); margin: 0px 0px 0px 4px;&quot;&gt;+ 
RemoveEdition(edition: Edition)&lt;/p&gt;&lt;p style=&quot;border-color: 
var(--border-color); margin: 0px 0px 0px 4px;&quot;&gt;+ 
GetLanguage()&lt;/p&gt;&lt;p style=&quot;border-color: 
var(--border-color); margin: 0px 0px 0px 4px;&quot;&gt;+ 
SetLanguage(language: Language)&lt;/p&gt;" 
style="text;strokeColor=none;fillColor=none;align=left;verticalAlign=top;spacingLeft=4;spacingRight=4;overflow=hidden;rotatable=0;points=[[0,0.5],[1,0.5]];portConstraint=eastwest;whiteSpace=wrap;html=1;rotation=0;" 
parent="XDDPpy6xa9LlmRaPZi7B-77" vertex="1">
          <mxGeometry y="74" width="390" height="86" as="geometry" />
        </mxCell>
        <mxCell id="XDDPpy6xa9LlmRaPZi7B-81" value="" 
style="endArrow=diamondThin;endFill=1;endSize=24;html=1;rounded=0;" 
parent="1" source="XDDPpy6xa9LlmRaPZi7B-80" 
target="XDDPpy6xa9LlmRaPZi7B-73" edge="1">
          <mxGeometry width="160" relative="1" as="geometry">
            <mxPoint x="1220" y="400" as="sourcePoint" />
            <mxPoint x="1380" y="400" as="targetPoint" />
          </mxGeometry>
        </mxCell>
        <mxCell id="XDDPpy6xa9LlmRaPZi7B-82" value="" 
style="endArrow=diamondThin;endFill=1;endSize=24;html=1;rounded=0;edgeStyle=orthogonalEdgeStyle;" 
parent="1" source="XDDPpy6xa9LlmRaPZi7B-64" 
target="EIWtW14MWvJl-eXGEkqy-52" edge="1">
          <mxGeometry width="160" relative="1" as="geometry">
            <mxPoint x="290" y="540" as="sourcePoint" />
            <mxPoint x="795" y="850" as="targetPoint" />
            <Array as="points">
              <mxPoint x="695" y="740" />
              <mxPoint x="830" y="740" />
            </Array>
          </mxGeometry>
        </mxCell>
        <mxCell id="XDDPpy6xa9LlmRaPZi7B-83" value="" 
style="endArrow=diamondThin;endFill=1;endSize=24;html=1;rounded=0;edgeStyle=orthogonalEdgeStyle;" 
parent="1" source="XDDPpy6xa9LlmRaPZi7B-73" 
target="EIWtW14MWvJl-eXGEkqy-52" edge="1">
          <mxGeometry width="160" relative="1" as="geometry">
            <mxPoint x="703" y="540" as="sourcePoint" />
            <mxPoint x="842" y="850" as="targetPoint" />
            <Array as="points">
              <mxPoint x="1245" y="740" />
              <mxPoint x="830" y="740" />
            </Array>
          </mxGeometry>
        </mxCell>
        <mxCell id="XDDPpy6xa9LlmRaPZi7B-84" value="" 
style="endArrow=diamondThin;endFill=0;endSize=24;html=1;rounded=0;edgeStyle=orthogonalEdgeStyle;" 
parent="1" source="XDDPpy6xa9LlmRaPZi7B-68" 
target="EIWtW14MWvJl-eXGEkqy-40" edge="1">
          <mxGeometry width="160" relative="1" as="geometry">
            <mxPoint x="299" y="270" as="sourcePoint" />
            <mxPoint x="685" y="60" as="targetPoint" />
            <Array as="points">
              <mxPoint x="685" y="200" />
              <mxPoint x="685" y="200" />
            </Array>
          </mxGeometry>
        </mxCell>
        <mxCell id="XDDPpy6xa9LlmRaPZi7B-85" value="" 
style="endArrow=diamondThin;endFill=0;endSize=24;html=1;rounded=0;edgeStyle=orthogonalEdgeStyle;" 
parent="1" source="XDDPpy6xa9LlmRaPZi7B-77" 
target="EIWtW14MWvJl-eXGEkqy-40" edge="1">
          <mxGeometry width="160" relative="1" as="geometry">
            <mxPoint x="688" y="270" as="sourcePoint" />
            <mxPoint x="702" y="60" as="targetPoint" />
            <Array as="points">
              <mxPoint x="1245" y="190" />
              <mxPoint x="685" y="190" />
            </Array>
          </mxGeometry>
        </mxCell>
        <mxCell id="nKgL5r-zwHb2kbBtqbAN-1" value="&lt;font 
style=&quot;font-size: 14px;&quot;&gt;Generic&lt;/font&gt;" 
style="swimlane;fontStyle=1;align=center;verticalAlign=top;childLayout=stackLayout;horizontal=1;startSize=26;horizontalStack=0;resizeParent=1;resizeParentMax=0;resizeLast=0;collapsible=1;marginBottom=0;whiteSpace=wrap;html=1;fillColor=#dae8fc;strokeColor=#6c8ebf;" 
parent="1" vertex="1">
          <mxGeometry x="-605" y="520" width="360" height="140" 
as="geometry">
            <mxRectangle x="370" y="510" width="60" height="30" 
as="alternateBounds" />
          </mxGeometry>
        </mxCell>
        <mxCell id="nKgL5r-zwHb2kbBtqbAN-2" value="- _genericName: 
String&lt;br&gt;- _genericship: Genericship&lt;br&gt;&lt;div 
style=&quot;display:none&quot; id=&quot;SDCloudData&quot;&gt;&lt;/div&gt;" 
style="text;strokeColor=none;fillColor=none;align=left;verticalAlign=top;spacingLeft=4;spacingRight=4;overflow=hidden;rotatable=0;points=[[0,0.5],[1,0.5]];portConstraint=eastwest;whiteSpace=wrap;html=1;rotation=0;" 
parent="nKgL5r-zwHb2kbBtqbAN-1" vertex="1">
          <mxGeometry y="26" width="360" height="34" as="geometry" />
        </mxCell>
        <mxCell id="nKgL5r-zwHb2kbBtqbAN-3" value="" 
style="line;strokeWidth=1;fillColor=none;align=left;verticalAlign=middle;spacingTop=-1;spacingLeft=3;spacingRight=3;rotatable=0;labelPosition=right;points=[];portConstraint=eastwest;strokeColor=inherit;" 
parent="nKgL5r-zwHb2kbBtqbAN-1" vertex="1">
          <mxGeometry y="60" width="360" height="8" as="geometry" />
        </mxCell>
        <mxCell id="nKgL5r-zwHb2kbBtqbAN-4" value="&lt;p 
style=&quot;border-color: var(--border-color); margin: 0px 0px 0px 
4px;&quot;&gt;+ GetGenericName()&lt;/p&gt;&lt;p style=&quot;border-color: 
var(--border-color); margin: 0px 0px 0px 4px;&quot;&gt;+ 
SetGenericName(genericName: String)&lt;/p&gt;&lt;p 
style=&quot;border-color: var(--border-color); margin: 0px 0px 0px 
4px;&quot;&gt;+ GetGenericship()&lt;/p&gt;&lt;p style=&quot;border-color: 
var(--border-color); margin: 0px 0px 0px 4px;&quot;&gt;+ 
SetGenericship(genericship: Genericship)&lt;/p&gt;" 
style="text;strokeColor=none;fillColor=none;align=left;verticalAlign=top;spacingLeft=4;spacingRight=4;overflow=hidden;rotatable=0;points=[[0,0.5],[1,0.5]];portConstraint=eastwest;whiteSpace=wrap;html=1;" 
parent="nKgL5r-zwHb2kbBtqbAN-1" vertex="1">
          <mxGeometry y="68" width="360" height="72" as="geometry" />
        </mxCell>
        <mxCell id="nKgL5r-zwHb2kbBtqbAN-5" value="&lt;font 
style=&quot;font-size: 14px;&quot;&gt;Genericship(nazwa 
chwilowa)&lt;/font&gt;" 
style="swimlane;fontStyle=1;align=center;verticalAlign=top;childLayout=stackLayout;horizontal=1;startSize=26;horizontalStack=0;resizeParent=1;resizeParentMax=0;resizeLast=0;collapsible=1;marginBottom=0;whiteSpace=wrap;html=1;fillColor=#dae8fc;strokeColor=#6c8ebf;" 
parent="1" vertex="1">
          <mxGeometry x="-630" y="240" width="390" height="160" 
as="geometry" />
        </mxCell>
        <mxCell id="nKgL5r-zwHb2kbBtqbAN-6" value="- _books: 
List&amp;lt;Book&amp;gt;&lt;br&gt;- _generic: Generic" 
style="text;strokeColor=none;fillColor=none;align=left;verticalAlign=top;spacingLeft=4;spacingRight=4;overflow=hidden;rotatable=0;points=[[0,0.5],[1,0.5]];portConstraint=eastwest;whiteSpace=wrap;html=1;rotation=0;" 
parent="nKgL5r-zwHb2kbBtqbAN-5" vertex="1">
          <mxGeometry y="26" width="390" height="40" as="geometry" />
        </mxCell>
        <mxCell id="nKgL5r-zwHb2kbBtqbAN-7" value="" 
style="line;strokeWidth=1;fillColor=none;align=left;verticalAlign=middle;spacingTop=-1;spacingLeft=3;spacingRight=3;rotatable=0;labelPosition=right;points=[];portConstraint=eastwest;strokeColor=inherit;" 
parent="nKgL5r-zwHb2kbBtqbAN-5" vertex="1">
          <mxGeometry y="66" width="390" height="8" as="geometry" />
        </mxCell>
        <mxCell id="nKgL5r-zwHb2kbBtqbAN-8" value="&lt;p 
style=&quot;border-color: var(--border-color); margin: 0px 0px 0px 
4px;&quot;&gt;+ GetBooks()&lt;/p&gt;&lt;p style=&quot;border-color: 
var(--border-color); margin: 0px 0px 0px 4px;&quot;&gt;+ AddBook(book: 
Book)&lt;/p&gt;&lt;p style=&quot;border-color: var(--border-color); 
margin: 0px 0px 0px 4px;&quot;&gt;+ RemoveBook(book: Book)&lt;/p&gt;&lt;p 
style=&quot;border-color: var(--border-color); margin: 0px 0px 0px 
4px;&quot;&gt;+ GetGeneric()&lt;/p&gt;&lt;p style=&quot;border-color: 
var(--border-color); margin: 0px 0px 0px 4px;&quot;&gt;+ 
SetGeneric(generic: Generic)&lt;/p&gt;" 
style="text;strokeColor=none;fillColor=none;align=left;verticalAlign=top;spacingLeft=4;spacingRight=4;overflow=hidden;rotatable=0;points=[[0,0.5],[1,0.5]];portConstraint=eastwest;whiteSpace=wrap;html=1;rotation=0;" 
parent="nKgL5r-zwHb2kbBtqbAN-5" vertex="1">
          <mxGeometry y="74" width="390" height="86" as="geometry" />
        </mxCell>
        <mxCell id="nKgL5r-zwHb2kbBtqbAN-9" value="" 
style="endArrow=diamondThin;endFill=1;endSize=24;html=1;rounded=0;" 
parent="1" source="nKgL5r-zwHb2kbBtqbAN-8" target="nKgL5r-zwHb2kbBtqbAN-1" 
edge="1">
          <mxGeometry width="160" relative="1" as="geometry">
            <mxPoint x="-320" y="410" as="sourcePoint" />
            <mxPoint x="-160" y="410" as="targetPoint" />
          </mxGeometry>
        </mxCell>
        <mxCell id="nKgL5r-zwHb2kbBtqbAN-10" value="&lt;span 
style=&quot;font-size: 14px;&quot;&gt;Topic&lt;/span&gt;" 
style="swimlane;fontStyle=1;align=center;verticalAlign=top;childLayout=stackLayout;horizontal=1;startSize=26;horizontalStack=0;resizeParent=1;resizeParentMax=0;resizeLast=0;collapsible=1;marginBottom=0;whiteSpace=wrap;html=1;fillColor=#dae8fc;strokeColor=#6c8ebf;" 
parent="1" vertex="1">
          <mxGeometry x="-1095" y="520" width="360" height="140" 
as="geometry">
            <mxRectangle x="370" y="510" width="60" height="30" 
as="alternateBounds" />
          </mxGeometry>
        </mxCell>
        <mxCell id="nKgL5r-zwHb2kbBtqbAN-11" value="- _topicName: 
String&lt;br&gt;- _topicship: Topicship&lt;br&gt;&lt;div 
style=&quot;display:none&quot; id=&quot;SDCloudData&quot;&gt;&lt;/div&gt;" 
style="text;strokeColor=none;fillColor=none;align=left;verticalAlign=top;spacingLeft=4;spacingRight=4;overflow=hidden;rotatable=0;points=[[0,0.5],[1,0.5]];portConstraint=eastwest;whiteSpace=wrap;html=1;rotation=0;" 
parent="nKgL5r-zwHb2kbBtqbAN-10" vertex="1">
          <mxGeometry y="26" width="360" height="34" as="geometry" />
        </mxCell>
        <mxCell id="nKgL5r-zwHb2kbBtqbAN-12" value="" 
style="line;strokeWidth=1;fillColor=none;align=left;verticalAlign=middle;spacingTop=-1;spacingLeft=3;spacingRight=3;rotatable=0;labelPosition=right;points=[];portConstraint=eastwest;strokeColor=inherit;" 
parent="nKgL5r-zwHb2kbBtqbAN-10" vertex="1">
          <mxGeometry y="60" width="360" height="8" as="geometry" />
        </mxCell>
        <mxCell id="nKgL5r-zwHb2kbBtqbAN-13" value="&lt;p 
style=&quot;border-color: var(--border-color); margin: 0px 0px 0px 
4px;&quot;&gt;+ GetTopicName()&lt;/p&gt;&lt;p style=&quot;border-color: 
var(--border-color); margin: 0px 0px 0px 4px;&quot;&gt;+ 
SetTopicName(topicName: String)&lt;br&gt;&lt;/p&gt;&lt;p 
style=&quot;border-color: var(--border-color); margin: 0px 0px 0px 
4px;&quot;&gt;+ GetTopicShip()&lt;/p&gt;&lt;p style=&quot;border-color: 
var(--border-color); margin: 0px 0px 0px 4px;&quot;&gt;+ 
SetTopicShip(topicShip: Topicship)&lt;/p&gt;" 
style="text;strokeColor=none;fillColor=none;align=left;verticalAlign=top;spacingLeft=4;spacingRight=4;overflow=hidden;rotatable=0;points=[[0,0.5],[1,0.5]];portConstraint=eastwest;whiteSpace=wrap;html=1;" 
parent="nKgL5r-zwHb2kbBtqbAN-10" vertex="1">
          <mxGeometry y="68" width="360" height="72" as="geometry" />
        </mxCell>
        <mxCell id="nKgL5r-zwHb2kbBtqbAN-14" value="&lt;font 
style=&quot;font-size: 14px;&quot;&gt;Topicship(nazwa 
chwilowa)&lt;/font&gt;" 
style="swimlane;fontStyle=1;align=center;verticalAlign=top;childLayout=stackLayout;horizontal=1;startSize=26;horizontalStack=0;resizeParent=1;resizeParentMax=0;resizeLast=0;collapsible=1;marginBottom=0;whiteSpace=wrap;html=1;fillColor=#dae8fc;strokeColor=#6c8ebf;" 
parent="1" vertex="1">
          <mxGeometry x="-1110" y="240" width="390" height="160" 
as="geometry" />
        </mxCell>
        <mxCell id="nKgL5r-zwHb2kbBtqbAN-15" value="- _books: 
List&amp;lt;Book&amp;gt;&lt;br style=&quot;border-color: 
var(--border-color);&quot;&gt;- _topic: Topic" 
style="text;strokeColor=none;fillColor=none;align=left;verticalAlign=top;spacingLeft=4;spacingRight=4;overflow=hidden;rotatable=0;points=[[0,0.5],[1,0.5]];portConstraint=eastwest;whiteSpace=wrap;html=1;rotation=0;" 
parent="nKgL5r-zwHb2kbBtqbAN-14" vertex="1">
          <mxGeometry y="26" width="390" height="40" as="geometry" />
        </mxCell>
        <mxCell id="nKgL5r-zwHb2kbBtqbAN-16" value="" 
style="line;strokeWidth=1;fillColor=none;align=left;verticalAlign=middle;spacingTop=-1;spacingLeft=3;spacingRight=3;rotatable=0;labelPosition=right;points=[];portConstraint=eastwest;strokeColor=inherit;" 
parent="nKgL5r-zwHb2kbBtqbAN-14" vertex="1">
          <mxGeometry y="66" width="390" height="8" as="geometry" />
        </mxCell>
        <mxCell id="nKgL5r-zwHb2kbBtqbAN-17" value="&lt;p 
style=&quot;border-color: var(--border-color); margin: 0px 0px 0px 
4px;&quot;&gt;+ GetBooks()&lt;/p&gt;&lt;p style=&quot;border-color: 
var(--border-color); margin: 0px 0px 0px 4px;&quot;&gt;+ AddBook(book: 
Book)&lt;/p&gt;&lt;p style=&quot;border-color: var(--border-color); 
margin: 0px 0px 0px 4px;&quot;&gt;+ RemoveBook(book: Book)&lt;/p&gt;&lt;p 
style=&quot;border-color: var(--border-color); margin: 0px 0px 0px 
4px;&quot;&gt;+ GetTopic()&lt;/p&gt;&lt;p style=&quot;border-color: 
var(--border-color); margin: 0px 0px 0px 4px;&quot;&gt;+ SetTopic(topic: 
Topic)&lt;/p&gt;" 
style="text;strokeColor=none;fillColor=none;align=left;verticalAlign=top;spacingLeft=4;spacingRight=4;overflow=hidden;rotatable=0;points=[[0,0.5],[1,0.5]];portConstraint=eastwest;whiteSpace=wrap;html=1;rotation=0;" 
parent="nKgL5r-zwHb2kbBtqbAN-14" vertex="1">
          <mxGeometry y="74" width="390" height="86" as="geometry" />
        </mxCell>
        <mxCell id="nKgL5r-zwHb2kbBtqbAN-18" value="" 
style="endArrow=diamondThin;endFill=1;endSize=24;html=1;rounded=0;" 
parent="1" source="nKgL5r-zwHb2kbBtqbAN-17" 
target="nKgL5r-zwHb2kbBtqbAN-10" edge="1">
          <mxGeometry width="160" relative="1" as="geometry">
            <mxPoint x="-800" y="410" as="sourcePoint" />
            <mxPoint x="-640" y="410" as="targetPoint" />
          </mxGeometry>
        </mxCell>
        <mxCell id="nKgL5r-zwHb2kbBtqbAN-19" value="" 
style="endArrow=diamondThin;endFill=0;endSize=24;html=1;rounded=0;edgeStyle=orthogonalEdgeStyle;" 
parent="1" source="nKgL5r-zwHb2kbBtqbAN-5" 
target="FMBArwRHaRoccxMsV3ws-11" edge="1">
          <mxGeometry width="160" relative="1" as="geometry">
            <mxPoint x="-270" y="360" as="sourcePoint" />
            <mxPoint x="116" y="150" as="targetPoint" />
            <Array as="points">
              <mxPoint x="-435" y="140" />
              <mxPoint x="-220" y="140" />
            </Array>
          </mxGeometry>
        </mxCell>
        <mxCell id="nKgL5r-zwHb2kbBtqbAN-20" value="" 
style="endArrow=diamondThin;endFill=0;endSize=24;html=1;rounded=0;edgeStyle=orthogonalEdgeStyle;" 
parent="1" source="nKgL5r-zwHb2kbBtqbAN-14" 
target="FMBArwRHaRoccxMsV3ws-11" edge="1">
          <mxGeometry width="160" relative="1" as="geometry">
            <mxPoint x="-500" y="250" as="sourcePoint" />
            <mxPoint x="-114" y="40" as="targetPoint" />
            <Array as="points">
              <mxPoint x="-915" y="140" />
              <mxPoint x="-220" y="140" />
            </Array>
          </mxGeometry>
        </mxCell>
        <mxCell id="nKgL5r-zwHb2kbBtqbAN-21" value="" 
style="endArrow=diamondThin;endFill=1;endSize=24;html=1;rounded=0;edgeStyle=orthogonalEdgeStyle;" 
parent="1" source="nKgL5r-zwHb2kbBtqbAN-1" 
target="EIWtW14MWvJl-eXGEkqy-52" edge="1">
          <mxGeometry width="160" relative="1" as="geometry">
            <mxPoint x="-380" y="720" as="sourcePoint" />
            <mxPoint x="-380" y="830" as="targetPoint" />
            <Array as="points">
              <mxPoint x="-425" y="740" />
              <mxPoint x="830" y="740" />
            </Array>
          </mxGeometry>
        </mxCell>
        <mxCell id="nKgL5r-zwHb2kbBtqbAN-22" value="" 
style="endArrow=diamondThin;endFill=1;endSize=24;html=1;rounded=0;edgeStyle=orthogonalEdgeStyle;" 
parent="1" source="nKgL5r-zwHb2kbBtqbAN-10" 
target="EIWtW14MWvJl-eXGEkqy-52" edge="1">
          <mxGeometry width="160" relative="1" as="geometry">
            <mxPoint x="-707" y="580" as="sourcePoint" />
            <mxPoint x="347" y="925" as="targetPoint" />
            <Array as="points">
              <mxPoint x="-915" y="740" />
              <mxPoint x="830" y="740" />
            </Array>
          </mxGeometry>
        </mxCell>
        <mxCell id="nKgL5r-zwHb2kbBtqbAN-24" value="" 
style="endArrow=open;endFill=1;endSize=12;html=1;rounded=0;edgeStyle=orthogonalEdgeStyle;" 
parent="1" source="FMBArwRHaRoccxMsV3ws-47" 
target="XDDPpy6xa9LlmRaPZi7B-13" edge="1">
          <mxGeometry width="160" relative="1" as="geometry">
            <mxPoint x="1830" y="1170" as="sourcePoint" />
            <mxPoint x="1440" y="1820" as="targetPoint" />
            <Array as="points">
              <mxPoint x="1515" y="1520" />
            </Array>
          </mxGeometry>
        </mxCell>
        <mxCell id="nKgL5r-zwHb2kbBtqbAN-25" value="" 
style="endArrow=open;endFill=1;endSize=12;html=1;rounded=0;edgeStyle=orthogonalEdgeStyle;" 
parent="1" source="XDDPpy6xa9LlmRaPZi7B-5" 
target="XDDPpy6xa9LlmRaPZi7B-13" edge="1">
          <mxGeometry width="160" relative="1" as="geometry">
            <mxPoint x="2230" y="580" as="sourcePoint" />
            <mxPoint x="1450" y="1274" as="targetPoint" />
            <Array as="points">
              <mxPoint x="2520" y="-80" />
              <mxPoint x="2520" y="1670" />
            </Array>
          </mxGeometry>
        </mxCell>
        <mxCell id="nKgL5r-zwHb2kbBtqbAN-26" value="" 
style="endArrow=open;endFill=1;endSize=12;html=1;rounded=0;edgeStyle=orthogonalEdgeStyle;" 
parent="1" source="XDDPpy6xa9LlmRaPZi7B-1" 
target="XDDPpy6xa9LlmRaPZi7B-13" edge="1">
          <mxGeometry width="160" relative="1" as="geometry">
            <mxPoint x="2256" y="142" as="sourcePoint" />
            <mxPoint x="934" y="1260" as="targetPoint" />
            <Array as="points">
              <mxPoint x="2520" y="-280" />
              <mxPoint x="2520" y="1670" />
            </Array>
          </mxGeometry>
        </mxCell>
        <mxCell id="dkga8902RlRk5C-HjE2B-2" value="" 
style="endArrow=diamondThin;endFill=1;endSize=24;html=1;rounded=0;edgeStyle=orthogonalEdgeStyle;jumpStyle=arc;jumpSize=30;" 
parent="1" source="XDDPpy6xa9LlmRaPZi7B-17" 
target="EIWtW14MWvJl-eXGEkqy-52" edge="1">
          <mxGeometry width="160" relative="1" as="geometry">
            <mxPoint x="540" y="1828" as="sourcePoint" />
            <mxPoint x="540" y="1720" as="targetPoint" />
            <Array as="points">
              <mxPoint x="540" y="1060" />
            </Array>
          </mxGeometry>
        </mxCell>
        <mxCell id="LI2CkbyQ2BE_ZrwpYUtt-5" value="&lt;b 
style=&quot;border-color: var(--border-color);&quot;&gt;&lt;font 
style=&quot;font-size: 14px;&quot;&gt;DamegedCopy&lt;/font&gt;&lt;/b&gt;" 
style="swimlane;fontStyle=1;align=center;verticalAlign=top;childLayout=stackLayout;horizontal=1;startSize=26;horizontalStack=0;resizeParent=1;resizeParentMax=0;resizeLast=0;collapsible=1;marginBottom=0;whiteSpace=wrap;html=1;fillColor=#dae8fc;strokeColor=#6c8ebf;" 
parent="1" vertex="1">
          <mxGeometry x="2140" y="268" width="330" height="180" 
as="geometry" />
        </mxCell>
        <mxCell id="LI2CkbyQ2BE_ZrwpYUtt-6" value="&lt;p 
style=&quot;border-color: var(--border-color); margin: 0px 0px 0px 
4px;&quot;&gt;&lt;span style=&quot;background-color: initial;&quot;&gt;- 
_damager: User&lt;/span&gt;&lt;br&gt;&lt;/p&gt;&lt;p 
style=&quot;border-color: var(--border-color); margin: 0px 0px 0px 
4px;&quot;&gt;&lt;span style=&quot;background-color: initial;&quot;&gt;- 
_damagedDate: Date&lt;/span&gt;&lt;/p&gt;&lt;p style=&quot;border-color: 
var(--border-color); margin: 0px 0px 0px 4px;&quot;&gt;- _bookCopyID: 
String&lt;/p&gt;&lt;p style=&quot;border-color: var(--border-color); 
margin: 0px 0px 0px 4px;&quot;&gt;- _section: Section&lt;/p&gt;" 
style="text;strokeColor=none;fillColor=none;align=left;verticalAlign=top;spacingLeft=4;spacingRight=4;overflow=hidden;rotatable=0;points=[[0,0.5],[1,0.5]];portConstraint=eastwest;whiteSpace=wrap;html=1;rotation=0;" 
parent="LI2CkbyQ2BE_ZrwpYUtt-5" vertex="1">
          <mxGeometry y="26" width="330" height="64" as="geometry" />
        </mxCell>
        <mxCell id="LI2CkbyQ2BE_ZrwpYUtt-7" value="" 
style="line;strokeWidth=1;fillColor=none;align=left;verticalAlign=middle;spacingTop=-1;spacingLeft=3;spacingRight=3;rotatable=0;labelPosition=right;points=[];portConstraint=eastwest;strokeColor=inherit;" 
parent="LI2CkbyQ2BE_ZrwpYUtt-5" vertex="1">
          <mxGeometry y="90" width="330" height="8" as="geometry" />
        </mxCell>
        <mxCell id="LI2CkbyQ2BE_ZrwpYUtt-8" value="&lt;p 
style=&quot;border-color: var(--border-color); margin: 0px 0px 0px 
4px;&quot;&gt;+ Repair()&lt;/p&gt;&lt;p style=&quot;border-color: 
var(--border-color); margin: 0px 0px 0px 4px;&quot;&gt;+ IsAvaible()&lt;br 
style=&quot;border-color: var(--border-color);&quot;&gt;+ 
IsBorrowed()&lt;br style=&quot;border-color: 
var(--border-color);&quot;&gt;+ IsOrdered()&lt;br 
style=&quot;border-color: var(--border-color);&quot;&gt;+ 
GetDueDate()&lt;br&gt;&lt;/p&gt;" 
style="text;strokeColor=none;fillColor=none;align=left;verticalAlign=top;spacingLeft=4;spacingRight=4;overflow=hidden;rotatable=0;points=[[0,0.5],[1,0.5]];portConstraint=eastwest;whiteSpace=wrap;html=1;rotation=0;" 
parent="LI2CkbyQ2BE_ZrwpYUtt-5" vertex="1">
          <mxGeometry y="98" width="330" height="82" as="geometry" />
        </mxCell>
        <mxCell id="3VBd_VB_IdiQkLcemd7t-1" value="" 
style="endArrow=block;endSize=16;endFill=0;html=1;rounded=0;edgeStyle=orthogonalEdgeStyle;" 
edge="1" parent="1" source="LI2CkbyQ2BE_ZrwpYUtt-5" 
target="FMBArwRHaRoccxMsV3ws-44">
          <mxGeometry width="160" relative="1" as="geometry">
            <mxPoint x="2105" y="63" as="sourcePoint" />
            <mxPoint x="2025" y="47" as="targetPoint" />
            <Array as="points">
              <mxPoint x="2110" y="336" />
              <mxPoint x="2110" y="-37" />
            </Array>
          </mxGeometry>
        </mxCell>
        <mxCell id="3VBd_VB_IdiQkLcemd7t-4" value="" 
style="endArrow=open;endFill=1;endSize=12;html=1;rounded=0;edgeStyle=orthogonalEdgeStyle;" 
edge="1" parent="1" source="LI2CkbyQ2BE_ZrwpYUtt-5" 
target="XDDPpy6xa9LlmRaPZi7B-13">
          <mxGeometry width="160" relative="1" as="geometry">
            <mxPoint x="2290" y="470" as="sourcePoint" />
            <mxPoint x="1760" y="970" as="targetPoint" />
            <Array as="points">
              <mxPoint x="2520" y="380" />
              <mxPoint x="2520" y="1670" />
            </Array>
          </mxGeometry>
        </mxCell>
        <mxCell id="3VBd_VB_IdiQkLcemd7t-5" value="&lt;b 
style=&quot;border-color: var(--border-color);&quot;&gt;&lt;font 
style=&quot;font-size: 14px;&quot;&gt;OrderedCopy&lt;/font&gt;&lt;/b&gt;" 
style="swimlane;fontStyle=1;align=center;verticalAlign=top;childLayout=stackLayout;horizontal=1;startSize=26;horizontalStack=0;resizeParent=1;resizeParentMax=0;resizeLast=0;collapsible=1;marginBottom=0;whiteSpace=wrap;html=1;fillColor=#dae8fc;strokeColor=#6c8ebf;" 
vertex="1" parent="1">
          <mxGeometry x="2150" y="80" width="330" height="150" 
as="geometry" />
        </mxCell>
        <mxCell id="3VBd_VB_IdiQkLcemd7t-6" value="&lt;p 
style=&quot;border-color: var(--border-color); margin: 0px 0px 0px 
4px;&quot;&gt;- _orderDate: Date&lt;/p&gt;&lt;p style=&quot;border-color: 
var(--border-color); margin: 0px 0px 0px 4px;&quot;&gt;- _bookCopyID: 
String&lt;/p&gt;&lt;p style=&quot;border-color: var(--border-color); 
margin: 0px 0px 0px 4px;&quot;&gt;- _section: Section&lt;/p&gt;" 
style="text;strokeColor=none;fillColor=none;align=left;verticalAlign=top;spacingLeft=4;spacingRight=4;overflow=hidden;rotatable=0;points=[[0,0.5],[1,0.5]];portConstraint=eastwest;whiteSpace=wrap;html=1;rotation=0;" 
vertex="1" parent="3VBd_VB_IdiQkLcemd7t-5">
          <mxGeometry y="26" width="330" height="50" as="geometry" />
        </mxCell>
        <mxCell id="3VBd_VB_IdiQkLcemd7t-7" value="" 
style="line;strokeWidth=1;fillColor=none;align=left;verticalAlign=middle;spacingTop=-1;spacingLeft=3;spacingRight=3;rotatable=0;labelPosition=right;points=[];portConstraint=eastwest;strokeColor=inherit;" 
vertex="1" parent="3VBd_VB_IdiQkLcemd7t-5">
          <mxGeometry y="76" width="330" height="8" as="geometry" />
        </mxCell>
        <mxCell id="3VBd_VB_IdiQkLcemd7t-8" value="&lt;p 
style=&quot;border-color: var(--border-color); margin: 0px 0px 0px 
4px;&quot;&gt;+ IsAvaible()&lt;br style=&quot;border-color: 
var(--border-color);&quot;&gt;+ IsBorrowed()&lt;br 
style=&quot;border-color: var(--border-color);&quot;&gt;+ 
IsOrdered()&lt;br style=&quot;border-color: 
var(--border-color);&quot;&gt;+ GetDueDate()&lt;br&gt;&lt;/p&gt;" 
style="text;strokeColor=none;fillColor=none;align=left;verticalAlign=top;spacingLeft=4;spacingRight=4;overflow=hidden;rotatable=0;points=[[0,0.5],[1,0.5]];portConstraint=eastwest;whiteSpace=wrap;html=1;rotation=0;" 
vertex="1" parent="3VBd_VB_IdiQkLcemd7t-5">
          <mxGeometry y="84" width="330" height="66" as="geometry" />
        </mxCell>
        <mxCell id="3VBd_VB_IdiQkLcemd7t-11" value="" 
style="shape=umlActor;verticalLabelPosition=bottom;verticalAlign=top;html=1;" 
vertex="1" parent="1">
          <mxGeometry x="2590" y="-170" width="10" height="10" 
as="geometry" />
        </mxCell>
      </root>
    </mxGraphModel>
  </diagram>
</mxfile>
